<?xml version="1.0" encoding="UTF-8"?>
<svg width="480px" height="400px" viewBox="0 0 480 400" version="1.1" xmlns="http://www.w3.org/2000/svg" xmlns:xlink="http://www.w3.org/1999/xlink">
    <title>akeyless_gateway</title>
    <g id="akeyless_gateway" stroke="none" stroke-width="1" fill="none" fill-rule="evenodd">
        <g id="svg-background" fill="#F2F2F3">
            <rect id="rectangle" x="0" y="0" width="480" height="400"></rect>
        </g>
        <g id="cloud" transform="translate(20, 160)" fill="#FFFFFF" fill-rule="nonzero" stroke="#0091FF" stroke-width="4">
            <path d="M101.328135,36.6936161 C113.231434,39.400477 121.202491,50.5916582 119.850919,62.699178 C118.499346,74.8066978 108.255739,83.9732375 96.0472874,83.9999847 L30.0366883,83.9999847 C14.6216201,84.0154283 1.70281968,72.3725329 0.153624487,57.0682592 C-1.3955707,41.7639855 8.92894252,27.7782953 24.0357248,24.7173242 L24.0357248,24.1185096 C24.0280257,17.6718447 27.482628,11.7153276 33.0880657,8.5102227 C38.6935035,5.30511777 45.5902412,5.34289442 51.16008,8.60921156 C59.7719111,0.118152478 72.6667517,-2.34937532 83.8154804,2.36034733 C94.9642091,7.07006998 102.163896,18.0264269 102.048251,30.1066556 C102.048251,32.382151 101.808212,34.5378836 101.328135,36.6936161 Z" id="Shape"></path>
        </g>
        <line x1="160.5" y1="-1.5" x2="160.5" y2="399.5" id="Line" stroke="#1D1E1F" stroke-width="2" stroke-linecap="square" stroke-dasharray="5"></line>
        <line x1="240.5" y1="-1.5" x2="240.5" y2="399.5" id="Line-Copy" stroke="#1D1E1F" stroke-width="2" stroke-linecap="square" stroke-dasharray="5"></line>
        <g id="docker" transform="translate(289.2, 149.2)" fill-rule="nonzero">
            <g id="icon-background" fill="#FFFFFF" stroke="#BFBFC0">
                <rect id="Rectangle" x="6.66133815e-16" y="6.66133815e-16" width="45.6" height="45.6" rx="4.5"></rect>
            </g>
            <g id="size=24_43" transform="translate(9.6, 13.2)" fill="#000001">
                <path d="M20.3637886,4.128 L20.6127886,3.768 L21.0446686,4.02 L21.2351086,4.152 C21.6975886,4.512 22.6686286,5.412 22.8793486,6.9 C23.2464286,6.84 23.6178286,6.804 23.9900686,6.804 C24.8711086,6.804 25.4625886,7.008 25.7996686,7.176 L25.9717486,7.272 L26.0845486,7.344 L26.4000286,7.596 L26.2920286,7.92 C26.1198286,8.376 25.8543886,8.784 25.5144286,9.108 C25.0370686,9.6 24.1971886,10.176 22.8608686,10.248 L22.5668686,10.26 L22.3236286,10.26 C21.7131886,11.856 20.8923886,13.644 19.5146686,15.252 C18.6906286,16.212 17.7213886,17.04 16.6443886,17.676 C15.3373486,18.444 13.9157086,18.984 12.4383886,19.26 C11.3756686,19.464 10.2966286,19.56 9.21566859,19.56 C6.82286859,19.56 4.71182859,19.092 3.41258859,18.264 C2.25302859,17.532 1.36178859,16.344 0.762748585,14.724 C0.238948585,13.248 -0.0191714148,11.676 0.0011085852,10.104 C0.0033885852,9.672 0.313348585,9.324 0.714868585,9.264 L0.826468585,9.264 L18.2165086,9.264 L18.3696286,9.252 L18.6147886,9.216 C19.0380286,9.168 19.6808686,9.036 20.1342286,8.784 C19.5919486,7.896 19.4384686,6.864 19.6908286,5.76 C19.7977486,5.292 19.9647886,4.848 20.1869086,4.44 L20.3637886,4.128 Z M4.76930859,6.168 L4.83410859,6.18 C4.89458859,6.204 4.94222859,6.252 4.96214859,6.312 L4.97210859,6.384 L4.97210859,8.52 L4.96178859,8.592 C4.94162859,8.652 4.89362859,8.7 4.83302859,8.724 L4.76870859,8.736 L2.43830859,8.736 C2.34842859,8.736 2.27210859,8.676 2.24522859,8.592 L2.23490859,8.52 L2.23490859,6.384 L2.24522859,6.312 C2.26538859,6.252 2.31338859,6.204 2.37398859,6.18 L2.43830859,6.168 L4.76930859,6.168 Z M7.98050859,6.168 L8.04542859,6.18 C8.10590859,6.204 8.15366859,6.252 8.17346859,6.312 L8.18354859,6.384 L8.18354859,8.52 L8.17310859,8.592 C8.15294859,8.652 8.10494859,8.7 8.04434859,8.724 L7.98002859,8.736 L5.64962859,8.736 C5.55962859,8.736 5.48306859,8.676 5.45570859,8.592 L5.44502859,8.52 L5.44502859,6.384 C5.44502859,6.288 5.50358859,6.204 5.58494859,6.18 L5.64962859,6.168 L7.98050859,6.168 Z M11.2407886,6.168 L11.3055886,6.18 C11.3660686,6.204 11.4138286,6.252 11.4336286,6.312 L11.4437086,6.384 L11.4437086,8.52 L11.4332686,8.592 C11.4131086,8.652 11.3652286,8.7 11.3045086,8.724 L11.2401886,8.736 L8.90990859,8.736 C8.82002859,8.736 8.74370859,8.676 8.71670859,8.592 L8.70638859,8.52 L8.70638859,6.384 L8.71670859,6.312 C8.73686859,6.252 8.78486859,6.204 8.84546859,6.18 L8.90978859,6.168 L11.2407886,6.168 Z M14.4618286,6.168 L14.5265086,6.18 C14.5874686,6.204 14.6357086,6.252 14.6559886,6.312 L14.6664286,6.384 L14.6664286,8.52 C14.6659486,8.616 14.6072686,8.688 14.5262686,8.724 L14.4618286,8.736 L12.1314286,8.736 C12.0415486,8.736 11.9652286,8.676 11.9383486,8.592 L11.9279086,8.52 L11.9279086,6.384 L11.9383486,6.312 C11.9585086,6.252 12.0065086,6.204 12.0671086,6.18 L12.1314286,6.168 L14.4618286,6.168 Z M17.7117886,6.168 L17.7764686,6.18 C17.8374286,6.204 17.8856686,6.252 17.9059486,6.312 L17.9163886,6.384 L17.9163886,8.52 C17.9159086,8.616 17.8572286,8.688 17.7762286,8.724 L17.7117886,8.736 L15.3813886,8.736 C15.2915086,8.736 15.2153086,8.676 15.1883086,8.592 L15.1779886,8.52 L15.1779886,6.384 L15.1883086,6.312 C15.2084686,6.252 15.2564686,6.204 15.3170686,6.18 L15.3813886,6.168 L17.7117886,6.168 Z M7.98002859,3.084 L8.04434859,3.096 C8.10494859,3.12 8.15294859,3.168 8.17310859,3.228 L8.18342859,3.3 L8.18342859,5.436 C8.18342859,5.532 8.12534859,5.604 8.04434859,5.64 L7.98002859,5.652 L5.64962859,5.652 C5.55950859,5.652 5.48306859,5.592 5.45570859,5.508 L5.44502859,5.436 L5.44502859,3.3 C5.44550859,3.204 5.50418859,3.12 5.58518859,3.096 L5.64962859,3.084 L7.98002859,3.084 Z M11.2401886,3.084 L11.3045086,3.096 C11.3651086,3.12 11.4131086,3.168 11.4332686,3.228 L11.4437086,3.3 L11.4437086,5.436 C11.4437086,5.532 11.3855086,5.604 11.3046286,5.64 L11.2401886,5.652 L8.90990859,5.652 C8.81978859,5.652 8.74358859,5.592 8.71670859,5.508 L8.70638859,5.436 L8.70638859,3.3 L8.71670859,3.228 C8.73698859,3.168 8.78486859,3.12 8.84558859,3.096 L8.90990859,3.084 L11.2401886,3.084 Z M14.4618286,3.084 C14.5518286,3.084 14.6283886,3.144 14.6556286,3.228 L14.6664286,3.3 L14.6664286,5.436 C14.6659486,5.532 14.6073886,5.604 14.5262686,5.64 L14.4618286,5.652 L12.1314286,5.652 C12.0414286,5.652 11.9652286,5.592 11.9383486,5.508 L11.9279086,5.436 L11.9279086,3.3 L11.9383486,3.228 C11.9585086,3.168 12.0065086,3.12 12.0671086,3.096 L12.1314286,3.084 L14.4618286,3.084 Z M14.4618286,0 C14.5518286,0 14.6283886,0.06 14.6556286,0.144 L14.6664286,0.216 L14.6664286,2.352 C14.6659486,2.448 14.6072686,2.532 14.5262686,2.556 L14.4618286,2.568 L12.1314286,2.568 C12.0415486,2.568 11.9652286,2.508 11.9383486,2.424 L11.9279086,2.352 L11.9279086,0.216 L11.9383486,0.144 C11.9585086,0.084 12.0065086,0.036 12.0671086,0.012 L12.1314286,0 L14.4618286,0 Z" id="Path_25"></path>
            </g>
        </g>
        <rect id="Rectangle" stroke="#1D1E1F" stroke-width="2" x="281" y="141" width="150" height="118" rx="5"></rect>
        <rect id="Rectangle" stroke="#0091FF" stroke-width="2" x="353" y="153" width="70" height="78" rx="5"></rect>
        <g id="key" transform="translate(60, 184)" fill="#000000" fill-rule="nonzero">
            <path d="M24.5178071,23.4814774 L19.9982114,28.0010732 L15.9985691,28.0010732 L15.9985691,32.0007155 L11.9989268,32.0007155 L11.9989268,36.0003577 L7.99928455,40 L0,40 L0,32.0007155 L16.5185226,15.4821929 C14.9208859,10.2153231 17.1113528,4.53686292 21.8321746,1.70733956 C26.5529964,-1.12218381 32.5935235,-0.37714231 36.4853329,3.51466708 C40.3771423,7.40647647 41.1221838,13.4470036 38.2926604,18.1678254 C35.4631371,22.8886472 29.7846769,25.0791141 24.5178071,23.4814774 Z M34.2369379,14.2423038 C35.950547,12.5265627 36.4628043,9.94795121 35.5351176,7.70750011 C34.6074308,5.46704902 32.4222334,4.00535241 29.9973171,4.00321953 C28.4066965,4.00461982 26.8817346,4.63762289 25.7576962,5.76306213 L34.2369379,14.2423038 L34.2369379,14.2423038 Z" id="Shape"></path>
        </g>
        <g id="save-disk" transform="translate(336, 276)" fill="#000000" fill-rule="nonzero">
            <path d="M0,4 C0,1.8 1.8,0 4,0 L32,0 L40,8 L40,36 C40,38.209139 38.209139,40 36,40 L4,40 C1.790861,40 0,38.209139 0,36 L0,4 Z M10,4 L10,16 L30,16 L30,4 L10,4 Z M22,6 L28,6 L28,14 L22,14 L22,6 Z" id="Shape"></path>
        </g>
        <g id="servers" transform="translate(280, 44)" fill="#000000" fill-rule="nonzero">
            <path d="M0,4 C0,1.8 1.8,0 4,0 L36,0 C38.209139,0 40,1.790861 40,4 L40,8 C40,10.209139 38.209139,12 36,12 L4,12 C1.790861,12 0,10.209139 0,8 L0,4 Z M0,18 C0,15.8 1.8,14 4,14 L36,14 C38.209139,14 40,15.790861 40,18 L40,22 C40,24.209139 38.209139,26 36,26 L4,26 C1.790861,26 0,24.209139 0,22 L0,18 Z M0,32 C0,29.8 1.8,28 4,28 L36,28 C38.209139,28 40,29.790861 40,32 L40,36 C40,38.209139 38.209139,40 36,40 L4,40 C1.790861,40 0,38.209139 0,36 L0,32 Z M24,4 L24,8 L28,8 L28,4 L24,4 Z M32,4 L32,8 L36,8 L36,4 L32,4 Z M24,18 L24,22 L28,22 L28,18 L24,18 Z M32,18 L32,22 L36,22 L36,18 L32,18 Z M24,32 L24,36 L28,36 L28,32 L24,32 Z M32,32 L32,36 L36,36 L36,32 L32,32 Z" id="Shape"></path>
        </g>
        <g id="servers-copy" transform="translate(336, 44)" fill="#000000" fill-rule="nonzero">
            <path d="M0,4 C0,1.8 1.8,0 4,0 L36,0 C38.209139,0 40,1.790861 40,4 L40,8 C40,10.209139 38.209139,12 36,12 L4,12 C1.790861,12 0,10.209139 0,8 L0,4 Z M0,18 C0,15.8 1.8,14 4,14 L36,14 C38.209139,14 40,15.790861 40,18 L40,22 C40,24.209139 38.209139,26 36,26 L4,26 C1.790861,26 0,24.209139 0,22 L0,18 Z M0,32 C0,29.8 1.8,28 4,28 L36,28 C38.209139,28 40,29.790861 40,32 L40,36 C40,38.209139 38.209139,40 36,40 L4,40 C1.790861,40 0,38.209139 0,36 L0,32 Z M24,4 L24,8 L28,8 L28,4 L24,4 Z M32,4 L32,8 L36,8 L36,4 L32,4 Z M24,18 L24,22 L28,22 L28,18 L24,18 Z M32,18 L32,22 L36,22 L36,18 L32,18 Z M24,32 L24,36 L28,36 L28,32 L24,32 Z M32,32 L32,36 L36,36 L36,32 L32,32 Z" id="Shape"></path>
        </g>
        <g id="servers-copy-2" transform="translate(392, 44)" fill="#000000" fill-rule="nonzero">
            <path d="M0,4 C0,1.8 1.8,0 4,0 L36,0 C38.209139,0 40,1.790861 40,4 L40,8 C40,10.209139 38.209139,12 36,12 L4,12 C1.790861,12 0,10.209139 0,8 L0,4 Z M0,18 C0,15.8 1.8,14 4,14 L36,14 C38.209139,14 40,15.790861 40,18 L40,22 C40,24.209139 38.209139,26 36,26 L4,26 C1.790861,26 0,24.209139 0,22 L0,18 Z M0,32 C0,29.8 1.8,28 4,28 L36,28 C38.209139,28 40,29.790861 40,32 L40,36 C40,38.209139 38.209139,40 36,40 L4,40 C1.790861,40 0,38.209139 0,36 L0,32 Z M24,4 L24,8 L28,8 L28,4 L24,4 Z M32,4 L32,8 L36,8 L36,4 L32,4 Z M24,18 L24,22 L28,22 L28,18 L24,18 Z M32,18 L32,22 L36,22 L36,18 L32,18 Z M24,32 L24,36 L28,36 L28,32 L24,32 Z M32,32 L32,36 L36,36 L36,32 L32,32 Z" id="Shape"></path>
        </g>
        <g id="play-outline" transform="translate(264, 276)" fill="#000000" fill-rule="nonzero">
            <path d="M6.1061835,34.3858298 C0.907116832,29.3644032 -1.17797734,21.9284278 0.652308577,14.9359266 C2.4825945,7.94342541 7.94342541,2.4825945 14.9359266,0.652308577 C21.9284278,-1.17797734 29.3644032,0.907116832 34.3858298,6.1061835 C41.9651792,13.9536631 41.8567838,26.4276249 34.1422044,34.1422044 C26.4276249,41.8567838 13.9536631,41.9651792 6.1061835,34.3858298 L6.1061835,34.3858298 Z M31.5658651,31.5658651 C37.8176502,25.3140799 37.8176502,15.1779334 31.5658651,8.92614823 C25.3140799,2.67436305 15.1779334,2.67436305 8.92614823,8.92614823 C2.67436305,15.1779334 2.67436305,25.3140799 8.92614823,31.5658651 C15.1779334,37.8176502 25.3140799,37.8176502 31.5658651,31.5658651 Z M14.2460817,12.2461067 L30.2458816,20.2460066 L14.2460817,28.2459066 L14.2460817,12.2461067 Z" id="Shape"></path>
        </g>
        <g id="duplicate" transform="translate(408, 276)" fill="#000000" fill-rule="nonzero">
            <path d="M12,12 L12,4 C12,1.8 13.8,0 16,0 L36,0 C38.209139,0 40,1.790861 40,4 L40,24 C40,26.209139 38.209139,28 36,28 L28,28 L28,36 C28,38.209139 26.209139,40 24,40 L4,40 C1.790861,40 0,38.209139 0,36 L0,16 C0,13.8 1.8,12 4,12 L12,12 Z M16,12 L24,12 C26.209139,12 28,13.790861 28,16 L28,24 L36,24 L36,4 L16,4 L16,12 Z M4,16 L4,36 L24,36 L24,16 L4,16 Z M12,24 L12,20 L16,20 L16,24 L20,24 L20,28 L16,28 L16,32 L12,32 L12,28 L8,28 L8,24 L12,24 Z" id="Shape"></path>
        </g>
        <line x1="280" y1="108" x2="432" y2="108" id="Path-3" stroke="#1D1E1F"></line>
        <path id="Path-4" d="M352,107.5 L356.5,116.5 L352.5,116.5 L352.5,140 L351.5,140 L351.5,116.5 L347.5,116.5 L352,107.5 Z" fill="#1D1E1F" fill-rule="nonzero"></path>
        <path id="Path-5" d="M140,209 C143.526469,209 146.443877,211.607702 146.92911,214.999992 L352,215 L352,217 L146.928967,217.00101 C146.443302,220.392812 143.526122,223 140,223 C136.134007,223 133,219.865993 133,216 C133,212.134007 136.134007,209 140,209 Z" fill="#0091FF" fill-rule="nonzero"></path>
        <text id="Akeyless" font-family="Helvetica-Bold, Helvetica" font-size="12" font-weight="bold" letter-spacing="-0.024" fill="#0091FF">
            <tspan x="58.0745156" y="267">Akeyless</tspan>
        </text>
        <text id="Live-replay" font-family="Helvetica-Bold, Helvetica" font-size="12" font-weight="bold" letter-spacing="-0.024" fill="#1D1E1F">
            <tspan x="272.042141" y="339">Live</tspan>
            <tspan x="266.394266" y="353">replay</tspan>
        </text>
        <text id="PRIVATE-NETWORK" font-family="Helvetica-Bold, Helvetica" font-size="12" font-weight="bold" letter-spacing="-0.024" fill="#1D1E1F">
            <tspan x="256" y="387">PRIVATE NETWORK</tspan>
        </text>
        <text id="PUBLIC-NETWORK" font-family="Helvetica-Bold, Helvetica" font-size="12" font-weight="bold" letter-spacing="-0.024" fill="#1D1E1F">
            <tspan x="178.238992" y="19">PUBLIC </tspan>
            <tspan x="169.587906" y="33">NETWORK</tspan>
        </text>
        <text id="In-memory-cache" font-family="Helvetica-Bold, Helvetica" font-size="12" font-weight="bold" letter-spacing="-0.024" fill="#1D1E1F">
            <tspan x="397.434172" y="339">In-memory </tspan>
            <tspan x="411.047305" y="353">cache</tspan>
        </text>
        <text id="Gateway" font-family="Helvetica-Bold, Helvetica" font-size="12" font-weight="bold" letter-spacing="-0.024" fill="#0091FF">
            <tspan x="363.404313" y="247">Gateway</tspan>
        </text>
        <text id="Secret-snapshots" font-family="Helvetica-Bold, Helvetica" font-size="12" font-weight="bold" letter-spacing="-0.024" fill="#1D1E1F">
            <tspan x="337.726297" y="339">Secret </tspan>
            <tspan x="326.102141" y="353">snapshots</tspan>
        </text>
        <g id="Group" transform="translate(359, 168)">
            <text id="Auth" font-family="Helvetica-Bold, Helvetica" font-size="12" font-weight="bold" letter-spacing="-0.024" fill="#1D1E1F">
                <tspan x="14.3868672" y="11">Auth</tspan>
            </text>
            <text id="Secrets" font-family="Helvetica-Bold, Helvetica" font-size="12" font-weight="bold" letter-spacing="-0.024" fill="#1D1E1F">
                <tspan x="7.40138281" y="42.1227616">Secrets</tspan>
            </text>
            <line x1="2" y1="23.5613808" x2="57" y2="23.5613808" id="Path-6" stroke="#0091FF" stroke-width="2" stroke-dasharray="4"></line>
        </g>
    </g>
</svg>