<?xml version="1.0" encoding="UTF-8"?>
<svg width="990x" height="497px" viewBox="0 0 3840 2160" version="1.1" xmlns="http://www.w3.org/2000/svg"
    xmlns:xlink="http://www.w3.org/1999/xlink">
    <defs>
        <rect id="path-1" x="320" y="320" width="960" height="1140"></rect>
        <mask id="mask-2" maskContentUnits="userSpaceOnUse" maskUnits="objectBoundingBox" x="0" y="0" width="960"
            height="1140" fill="white">
            <use xlink:href="#path-1"></use>
        </mask>
        <path d="M1440,320 L1440,1420" id="path-3"></path>
        <filter x="-2950.0%" y="-5.5%" width="7000.0%" height="111.8%" filterUnits="objectBoundingBox" id="filter-4">
            <feMorphology radius="5" operator="dilate" in="SourceAlpha" result="shadowSpreadOuter1"></feMorphology>
            <feOffset dx="10" dy="10" in="shadowSpreadOuter1" result="shadowOffsetOuter1"></feOffset>
            <feMorphology radius="5" operator="erode" in="SourceAlpha" result="shadowInner"></feMorphology>
            <feOffset dx="10" dy="10" in="shadowInner" result="shadowInner"></feOffset>
            <feComposite in="shadowOffsetOuter1" in2="shadowInner" operator="out" result="shadowOffsetOuter1">
            </feComposite>
            <feGaussianBlur stdDeviation="20" in="shadowOffsetOuter1" result="shadowBlurOuter1"></feGaussianBlur>
            <feColorMatrix values="0 0 0 0 0   0 0 0 0 0   0 0 0 0 0  0 0 0 0.5 0" type="matrix" in="shadowBlurOuter1">
            </feColorMatrix>
        </filter>
        <path d="M1534.625,1433.875 L1345.875,1433.625" id="path-5"></path>
        <filter x="-31.3%" y="-2975.3%" width="173.0%" height="7013.2%" filterUnits="objectBoundingBox" id="filter-6">
            <feMorphology radius="5" operator="dilate" in="SourceAlpha" result="shadowSpreadOuter1"></feMorphology>
            <feOffset dx="10" dy="10" in="shadowSpreadOuter1" result="shadowOffsetOuter1"></feOffset>
            <feMorphology radius="5" operator="erode" in="SourceAlpha" result="shadowInner"></feMorphology>
            <feOffset dx="10" dy="10" in="shadowInner" result="shadowInner"></feOffset>
            <feComposite in="shadowOffsetOuter1" in2="shadowInner" operator="out" result="shadowOffsetOuter1">
            </feComposite>
            <feGaussianBlur stdDeviation="20" in="shadowOffsetOuter1" result="shadowBlurOuter1"></feGaussianBlur>
            <feColorMatrix values="0 0 0 0 0   0 0 0 0 0   0 0 0 0 0  0 0 0 0.5 0" type="matrix" in="shadowBlurOuter1">
            </feColorMatrix>
        </filter>
        <rect id="path-7" x="1600" y="320" width="480" height="1120" rx="20"></rect>
        <mask id="mask-8" maskContentUnits="userSpaceOnUse" maskUnits="objectBoundingBox" x="0" y="0" width="480"
            height="1120" fill="white">
            <use xlink:href="#path-7"></use>
        </mask>
        <rect id="path-9" x="2400" y="320" width="480" height="1120" rx="20"></rect>
        <mask id="mask-10" maskContentUnits="userSpaceOnUse" maskUnits="objectBoundingBox" x="0" y="0" width="480"
            height="1120" fill="white">
            <use xlink:href="#path-9"></use>
        </mask>
        <rect id="path-11" x="3200" y="320" width="480" height="1120" rx="20"></rect>
        <mask id="mask-12" maskContentUnits="userSpaceOnUse" maskUnits="objectBoundingBox" x="0" y="0" width="480"
            height="1120" fill="white">
            <use xlink:href="#path-11"></use>
        </mask>
        <rect id="path-13" x="1600" y="1600" width="2079" height="320" rx="20"></rect>
        <mask id="mask-14" maskContentUnits="userSpaceOnUse" maskUnits="objectBoundingBox" x="0" y="0" width="2079"
            height="320" fill="white">
            <use xlink:href="#path-13"></use>
        </mask>
        <rect id="path-15" x="490" y="600" width="300" height="100" rx="8"></rect>
        <filter x="-19.3%" y="-58.0%" width="145.3%" height="236.0%" filterUnits="objectBoundingBox" id="filter-16">
            <feMorphology radius="3" operator="dilate" in="SourceAlpha" result="shadowSpreadOuter1"></feMorphology>
            <feOffset dx="10" dy="10" in="shadowSpreadOuter1" result="shadowOffsetOuter1"></feOffset>
            <feGaussianBlur stdDeviation="20" in="shadowOffsetOuter1" result="shadowBlurOuter1"></feGaussianBlur>
            <feComposite in="shadowBlurOuter1" in2="SourceAlpha" operator="out" result="shadowBlurOuter1"></feComposite>
            <feColorMatrix values="0 0 0 0 0   0 0 0 0 0   0 0 0 0 0  0 0 0 0.5 0" type="matrix" in="shadowBlurOuter1">
            </feColorMatrix>
        </filter>
        <rect id="path-17" x="140" y="600" width="119" height="100" rx="8"></rect>
        <filter x="-48.7%" y="-58.0%" width="214.3%" height="236.0%" filterUnits="objectBoundingBox" id="filter-18">
            <feMorphology radius="3" operator="dilate" in="SourceAlpha" result="shadowSpreadOuter1"></feMorphology>
            <feOffset dx="10" dy="10" in="shadowSpreadOuter1" result="shadowOffsetOuter1"></feOffset>
            <feGaussianBlur stdDeviation="20" in="shadowOffsetOuter1" result="shadowBlurOuter1"></feGaussianBlur>
            <feComposite in="shadowBlurOuter1" in2="SourceAlpha" operator="out" result="shadowBlurOuter1"></feComposite>
            <feColorMatrix values="0 0 0 0 0   0 0 0 0 0   0 0 0 0 0  0 0 0 0.5 0" type="matrix" in="shadowBlurOuter1">
            </feColorMatrix>
        </filter>
        <rect id="path-19" x="569" y="1240" width="142" height="100" rx="8"></rect>
        <filter x="-40.8%" y="-58.0%" width="195.8%" height="236.0%" filterUnits="objectBoundingBox" id="filter-20">
            <feMorphology radius="3" operator="dilate" in="SourceAlpha" result="shadowSpreadOuter1"></feMorphology>
            <feOffset dx="10" dy="10" in="shadowSpreadOuter1" result="shadowOffsetOuter1"></feOffset>
            <feGaussianBlur stdDeviation="20" in="shadowOffsetOuter1" result="shadowBlurOuter1"></feGaussianBlur>
            <feComposite in="shadowBlurOuter1" in2="SourceAlpha" operator="out" result="shadowBlurOuter1"></feComposite>
            <feColorMatrix values="0 0 0 0 0   0 0 0 0 0   0 0 0 0 0  0 0 0 0.5 0" type="matrix" in="shadowBlurOuter1">
            </feColorMatrix>
        </filter>
        <rect id="path-21" x="909" y="1240" width="300" height="100" rx="8"></rect>
        <filter x="-19.3%" y="-58.0%" width="145.3%" height="236.0%" filterUnits="objectBoundingBox" id="filter-22">
            <feMorphology radius="3" operator="dilate" in="SourceAlpha" result="shadowSpreadOuter1"></feMorphology>
            <feOffset dx="10" dy="10" in="shadowSpreadOuter1" result="shadowOffsetOuter1"></feOffset>
            <feGaussianBlur stdDeviation="20" in="shadowOffsetOuter1" result="shadowBlurOuter1"></feGaussianBlur>
            <feComposite in="shadowBlurOuter1" in2="SourceAlpha" operator="out" result="shadowBlurOuter1"></feComposite>
            <feColorMatrix values="0 0 0 0 0   0 0 0 0 0   0 0 0 0 0  0 0 0 0.5 0" type="matrix" in="shadowBlurOuter1">
            </feColorMatrix>
        </filter>
        <rect id="path-23" x="910" y="910" width="300" height="100" rx="8"></rect>
        <filter x="-19.3%" y="-58.0%" width="145.3%" height="236.0%" filterUnits="objectBoundingBox" id="filter-24">
            <feMorphology radius="3" operator="dilate" in="SourceAlpha" result="shadowSpreadOuter1"></feMorphology>
            <feOffset dx="10" dy="10" in="shadowSpreadOuter1" result="shadowOffsetOuter1"></feOffset>
            <feGaussianBlur stdDeviation="20" in="shadowOffsetOuter1" result="shadowBlurOuter1"></feGaussianBlur>
            <feComposite in="shadowBlurOuter1" in2="SourceAlpha" operator="out" result="shadowBlurOuter1"></feComposite>
            <feColorMatrix values="0 0 0 0 0   0 0 0 0 0   0 0 0 0 0  0 0 0 0.5 0" type="matrix" in="shadowBlurOuter1">
            </feColorMatrix>
        </filter>
        <rect id="path-25" x="1690" y="600" width="300" height="100" rx="8"></rect>
        <filter x="-19.3%" y="-58.0%" width="145.3%" height="236.0%" filterUnits="objectBoundingBox" id="filter-26">
            <feMorphology radius="3" operator="dilate" in="SourceAlpha" result="shadowSpreadOuter1"></feMorphology>
            <feOffset dx="10" dy="10" in="shadowSpreadOuter1" result="shadowOffsetOuter1"></feOffset>
            <feGaussianBlur stdDeviation="20" in="shadowOffsetOuter1" result="shadowBlurOuter1"></feGaussianBlur>
            <feComposite in="shadowBlurOuter1" in2="SourceAlpha" operator="out" result="shadowBlurOuter1"></feComposite>
            <feColorMatrix values="0 0 0 0 0   0 0 0 0 0   0 0 0 0 0  0 0 0 0.5 0" type="matrix" in="shadowBlurOuter1">
            </feColorMatrix>
        </filter>
        <rect id="path-27" x="1689" y="912" width="300" height="100" rx="8"></rect>
        <filter x="-19.3%" y="-58.0%" width="145.3%" height="236.0%" filterUnits="objectBoundingBox" id="filter-28">
            <feMorphology radius="3" operator="dilate" in="SourceAlpha" result="shadowSpreadOuter1"></feMorphology>
            <feOffset dx="10" dy="10" in="shadowSpreadOuter1" result="shadowOffsetOuter1"></feOffset>
            <feGaussianBlur stdDeviation="20" in="shadowOffsetOuter1" result="shadowBlurOuter1"></feGaussianBlur>
            <feComposite in="shadowBlurOuter1" in2="SourceAlpha" operator="out" result="shadowBlurOuter1"></feComposite>
            <feColorMatrix values="0 0 0 0 0   0 0 0 0 0   0 0 0 0 0  0 0 0 0.5 0" type="matrix" in="shadowBlurOuter1">
            </feColorMatrix>
        </filter>
        <rect id="path-29" x="2490" y="600" width="300" height="100" rx="8"></rect>
        <filter x="-19.3%" y="-58.0%" width="145.3%" height="236.0%" filterUnits="objectBoundingBox" id="filter-30">
            <feMorphology radius="3" operator="dilate" in="SourceAlpha" result="shadowSpreadOuter1"></feMorphology>
            <feOffset dx="10" dy="10" in="shadowSpreadOuter1" result="shadowOffsetOuter1"></feOffset>
            <feGaussianBlur stdDeviation="20" in="shadowOffsetOuter1" result="shadowBlurOuter1"></feGaussianBlur>
            <feComposite in="shadowBlurOuter1" in2="SourceAlpha" operator="out" result="shadowBlurOuter1"></feComposite>
            <feColorMatrix values="0 0 0 0 0   0 0 0 0 0   0 0 0 0 0  0 0 0 0.5 0" type="matrix" in="shadowBlurOuter1">
            </feColorMatrix>
        </filter>
        <rect id="path-31" x="2490" y="910" width="300" height="100" rx="8"></rect>
        <filter x="-19.3%" y="-58.0%" width="145.3%" height="236.0%" filterUnits="objectBoundingBox" id="filter-32">
            <feMorphology radius="3" operator="dilate" in="SourceAlpha" result="shadowSpreadOuter1"></feMorphology>
            <feOffset dx="10" dy="10" in="shadowSpreadOuter1" result="shadowOffsetOuter1"></feOffset>
            <feGaussianBlur stdDeviation="20" in="shadowOffsetOuter1" result="shadowBlurOuter1"></feGaussianBlur>
            <feComposite in="shadowBlurOuter1" in2="SourceAlpha" operator="out" result="shadowBlurOuter1"></feComposite>
            <feColorMatrix values="0 0 0 0 0   0 0 0 0 0   0 0 0 0 0  0 0 0 0.5 0" type="matrix" in="shadowBlurOuter1">
            </feColorMatrix>
        </filter>
        <rect id="path-33" x="3290" y="599" width="300" height="100" rx="8"></rect>
        <filter x="-19.3%" y="-58.0%" width="145.3%" height="236.0%" filterUnits="objectBoundingBox" id="filter-34">
            <feMorphology radius="3" operator="dilate" in="SourceAlpha" result="shadowSpreadOuter1"></feMorphology>
            <feOffset dx="10" dy="10" in="shadowSpreadOuter1" result="shadowOffsetOuter1"></feOffset>
            <feGaussianBlur stdDeviation="20" in="shadowOffsetOuter1" result="shadowBlurOuter1"></feGaussianBlur>
            <feComposite in="shadowBlurOuter1" in2="SourceAlpha" operator="out" result="shadowBlurOuter1"></feComposite>
            <feColorMatrix values="0 0 0 0 0   0 0 0 0 0   0 0 0 0 0  0 0 0 0.5 0" type="matrix" in="shadowBlurOuter1">
            </feColorMatrix>
        </filter>
        <rect id="path-35" x="2490" y="1238" width="300" height="100" rx="8"></rect>
        <filter x="-19.3%" y="-58.0%" width="145.3%" height="236.0%" filterUnits="objectBoundingBox" id="filter-36">
            <feMorphology radius="3" operator="dilate" in="SourceAlpha" result="shadowSpreadOuter1"></feMorphology>
            <feOffset dx="10" dy="10" in="shadowSpreadOuter1" result="shadowOffsetOuter1"></feOffset>
            <feGaussianBlur stdDeviation="20" in="shadowOffsetOuter1" result="shadowBlurOuter1"></feGaussianBlur>
            <feComposite in="shadowBlurOuter1" in2="SourceAlpha" operator="out" result="shadowBlurOuter1"></feComposite>
            <feColorMatrix values="0 0 0 0 0   0 0 0 0 0   0 0 0 0 0  0 0 0 0.5 0" type="matrix" in="shadowBlurOuter1">
            </feColorMatrix>
        </filter>
        <rect id="path-37" x="2490" y="1711" width="300" height="100" rx="8"></rect>
        <filter x="-19.3%" y="-58.0%" width="145.3%" height="236.0%" filterUnits="objectBoundingBox" id="filter-38">
            <feMorphology radius="3" operator="dilate" in="SourceAlpha" result="shadowSpreadOuter1"></feMorphology>
            <feOffset dx="10" dy="10" in="shadowSpreadOuter1" result="shadowOffsetOuter1"></feOffset>
            <feGaussianBlur stdDeviation="20" in="shadowOffsetOuter1" result="shadowBlurOuter1"></feGaussianBlur>
            <feComposite in="shadowBlurOuter1" in2="SourceAlpha" operator="out" result="shadowBlurOuter1"></feComposite>
            <feColorMatrix values="0 0 0 0 0   0 0 0 0 0   0 0 0 0 0  0 0 0 0.5 0" type="matrix" in="shadowBlurOuter1">
            </feColorMatrix>
        </filter>
        <circle id="path-39" cx="430" cy="960" r="50"></circle>
        <filter x="-58.0%" y="-58.0%" width="236.0%" height="236.0%" filterUnits="objectBoundingBox" id="filter-40">
            <feMorphology radius="3" operator="dilate" in="SourceAlpha" result="shadowSpreadOuter1"></feMorphology>
            <feOffset dx="10" dy="10" in="shadowSpreadOuter1" result="shadowOffsetOuter1"></feOffset>
            <feGaussianBlur stdDeviation="20" in="shadowOffsetOuter1" result="shadowBlurOuter1"></feGaussianBlur>
            <feComposite in="shadowBlurOuter1" in2="SourceAlpha" operator="out" result="shadowBlurOuter1"></feComposite>
            <feColorMatrix values="0 0 0 0 0   0 0 0 0 0   0 0 0 0 0  0 0 0 0.5 0" type="matrix" in="shadowBlurOuter1">
            </feColorMatrix>
        </filter>
        <rect id="path-41" x="590" y="910" width="100" height="100"></rect>
        <filter x="-58.0%" y="-58.0%" width="236.0%" height="236.0%" filterUnits="objectBoundingBox" id="filter-42">
            <feMorphology radius="3" operator="dilate" in="SourceAlpha" result="shadowSpreadOuter1"></feMorphology>
            <feOffset dx="10" dy="10" in="shadowSpreadOuter1" result="shadowOffsetOuter1"></feOffset>
            <feGaussianBlur stdDeviation="20" in="shadowOffsetOuter1" result="shadowBlurOuter1"></feGaussianBlur>
            <feComposite in="shadowBlurOuter1" in2="SourceAlpha" operator="out" result="shadowBlurOuter1"></feComposite>
            <feColorMatrix values="0 0 0 0 0   0 0 0 0 0   0 0 0 0 0  0 0 0 0.5 0" type="matrix" in="shadowBlurOuter1">
            </feColorMatrix>
        </filter>
        <path
            d="M340,320 L1260,320 C1271.04569,320 1280,328.954305 1280,340 L1280,480 L1280,480 L320,480 L320,340 C320,328.954305 328.954305,320 340,320 Z"
            id="path-43"></path>
        <mask id="mask-44" maskContentUnits="userSpaceOnUse" maskUnits="objectBoundingBox" x="0" y="0" width="960"
            height="160" fill="white">
            <use xlink:href="#path-43"></use>
        </mask>
        <path
            d="M1620,1600 L1760,1600 L1760,1600 L1760,1920 L1620,1920 C1608.95431,1920 1600,1911.04569 1600,1900 L1600,1620 C1600,1608.95431 1608.95431,1600 1620,1600 Z"
            id="path-45"></path>
        <mask id="mask-46" maskContentUnits="userSpaceOnUse" maskUnits="objectBoundingBox" x="0" y="0" width="160"
            height="320" fill="white">
            <use xlink:href="#path-45"></use>
        </mask>
        <path
            d="M2420,320 L2860,320 C2871.04569,320 2880,328.954305 2880,340 L2880,480 L2880,480 L2400,480 L2400,340 C2400,328.954305 2408.95431,320 2420,320 Z"
            id="path-47"></path>
        <mask id="mask-48" maskContentUnits="userSpaceOnUse" maskUnits="objectBoundingBox" x="0" y="0" width="480"
            height="160" fill="white">
            <use xlink:href="#path-47"></use>
        </mask>
        <path
            d="M1620,320 L2060,320 C2071.04569,320 2080,328.954305 2080,340 L2080,480 L2080,480 L1600,480 L1600,340 C1600,328.954305 1608.95431,320 1620,320 Z"
            id="path-49"></path>
        <mask id="mask-50" maskContentUnits="userSpaceOnUse" maskUnits="objectBoundingBox" x="0" y="0" width="480"
            height="160" fill="white">
            <use xlink:href="#path-49"></use>
        </mask>
        <path
            d="M3220,320 L3660,320 C3671.04569,320 3680,328.954305 3680,340 L3680,480 L3680,480 L3200,480 L3200,340 C3200,328.954305 3208.95431,320 3220,320 Z"
            id="path-51"></path>
        <mask id="mask-52" maskContentUnits="userSpaceOnUse" maskUnits="objectBoundingBox" x="0" y="0" width="480"
            height="160" fill="white">
            <use xlink:href="#path-51"></use>
        </mask>
        <filter x="-96.7%" y="-96.7%" width="326.7%" height="326.7%" filterUnits="objectBoundingBox" id="filter-53">
            <feOffset dx="10" dy="10" in="SourceAlpha" result="shadowOffsetOuter1"></feOffset>
            <feGaussianBlur stdDeviation="20" in="shadowOffsetOuter1" result="shadowBlurOuter1"></feGaussianBlur>
            <feColorMatrix values="0 0 0 0 0   0 0 0 0 0   0 0 0 0 0  0 0 0 0.5 0" type="matrix" in="shadowBlurOuter1"
                result="shadowMatrixOuter1"></feColorMatrix>
            <feMerge>
                <feMergeNode in="shadowMatrixOuter1"></feMergeNode>
                <feMergeNode in="SourceGraphic"></feMergeNode>
            </feMerge>
        </filter>
        <polygon id="path-54" points="3080 1660 3100 1700 3060 1700"></polygon>
        <filter x="-137.5%" y="-137.5%" width="425.0%" height="425.0%" filterUnits="objectBoundingBox" id="filter-55">
            <feOffset dx="10" dy="10" in="SourceAlpha" result="shadowOffsetOuter1"></feOffset>
            <feGaussianBlur stdDeviation="20" in="shadowOffsetOuter1" result="shadowBlurOuter1"></feGaussianBlur>
            <feComposite in="shadowBlurOuter1" in2="SourceAlpha" operator="out" result="shadowBlurOuter1"></feComposite>
            <feColorMatrix values="0 0 0 0 0   0 0 0 0 0   0 0 0 0 0  0 0 0 0.5 0" type="matrix" in="shadowBlurOuter1">
            </feColorMatrix>
        </filter>
        <polygon id="path-56" points="3380 1820 3400 1860 3360 1860"></polygon>
        <filter x="-137.5%" y="-137.5%" width="425.0%" height="425.0%" filterUnits="objectBoundingBox" id="filter-57">
            <feOffset dx="10" dy="10" in="SourceAlpha" result="shadowOffsetOuter1"></feOffset>
            <feGaussianBlur stdDeviation="20" in="shadowOffsetOuter1" result="shadowBlurOuter1"></feGaussianBlur>
            <feComposite in="shadowBlurOuter1" in2="SourceAlpha" operator="out" result="shadowBlurOuter1"></feComposite>
            <feColorMatrix values="0 0 0 0 0   0 0 0 0 0   0 0 0 0 0  0 0 0 0.5 0" type="matrix" in="shadowBlurOuter1">
            </feColorMatrix>
        </filter>
        <polygon id="path-58" points="1890 1661 1910 1701 1870 1701"></polygon>
        <filter x="-137.5%" y="-137.5%" width="425.0%" height="425.0%" filterUnits="objectBoundingBox" id="filter-59">
            <feOffset dx="10" dy="10" in="SourceAlpha" result="shadowOffsetOuter1"></feOffset>
            <feGaussianBlur stdDeviation="20" in="shadowOffsetOuter1" result="shadowBlurOuter1"></feGaussianBlur>
            <feComposite in="shadowBlurOuter1" in2="SourceAlpha" operator="out" result="shadowBlurOuter1"></feComposite>
            <feColorMatrix values="0 0 0 0 0   0 0 0 0 0   0 0 0 0 0  0 0 0 0.5 0" type="matrix" in="shadowBlurOuter1">
            </feColorMatrix>
        </filter>
        <polygon id="path-60" points="2190 1821 2210 1861 2170 1861"></polygon>
        <filter x="-137.5%" y="-137.5%" width="425.0%" height="425.0%" filterUnits="objectBoundingBox" id="filter-61">
            <feOffset dx="10" dy="10" in="SourceAlpha" result="shadowOffsetOuter1"></feOffset>
            <feGaussianBlur stdDeviation="20" in="shadowOffsetOuter1" result="shadowBlurOuter1"></feGaussianBlur>
            <feComposite in="shadowBlurOuter1" in2="SourceAlpha" operator="out" result="shadowBlurOuter1"></feComposite>
            <feColorMatrix values="0 0 0 0 0   0 0 0 0 0   0 0 0 0 0  0 0 0 0.5 0" type="matrix" in="shadowBlurOuter1">
            </feColorMatrix>
        </filter>
        <polygon id="path-62" points="1109 1661 1129 1701 1089 1701"></polygon>
        <filter x="-137.5%" y="-137.5%" width="425.0%" height="425.0%" filterUnits="objectBoundingBox" id="filter-63">
            <feOffset dx="10" dy="10" in="SourceAlpha" result="shadowOffsetOuter1"></feOffset>
            <feGaussianBlur stdDeviation="20" in="shadowOffsetOuter1" result="shadowBlurOuter1"></feGaussianBlur>
            <feComposite in="shadowBlurOuter1" in2="SourceAlpha" operator="out" result="shadowBlurOuter1"></feComposite>
            <feColorMatrix values="0 0 0 0 0   0 0 0 0 0   0 0 0 0 0  0 0 0 0.5 0" type="matrix" in="shadowBlurOuter1">
            </feColorMatrix>
        </filter>
        <polygon id="path-64" points="1409 1821 1429 1861 1389 1861"></polygon>
        <filter x="-137.5%" y="-137.5%" width="425.0%" height="425.0%" filterUnits="objectBoundingBox" id="filter-65">
            <feOffset dx="10" dy="10" in="SourceAlpha" result="shadowOffsetOuter1"></feOffset>
            <feGaussianBlur stdDeviation="20" in="shadowOffsetOuter1" result="shadowBlurOuter1"></feGaussianBlur>
            <feComposite in="shadowBlurOuter1" in2="SourceAlpha" operator="out" result="shadowBlurOuter1"></feComposite>
            <feColorMatrix values="0 0 0 0 0   0 0 0 0 0   0 0 0 0 0  0 0 0 0.5 0" type="matrix" in="shadowBlurOuter1">
            </feColorMatrix>
        </filter>
        <rect id="path-66" x="319.5" y="1599.99219" width="641" height="320" rx="20"></rect>
        <mask id="mask-67" maskContentUnits="userSpaceOnUse" maskUnits="objectBoundingBox" x="0" y="0" width="641"
            height="320" fill="white">
            <use xlink:href="#path-66"></use>
        </mask>
        <polygon id="path-68" points="578.5 1680.5 598.5 1720.5 558.5 1720.5"></polygon>
        <filter x="-137.5%" y="-137.5%" width="425.0%" height="425.0%" filterUnits="objectBoundingBox" id="filter-69">
            <feOffset dx="10" dy="10" in="SourceAlpha" result="shadowOffsetOuter1"></feOffset>
            <feGaussianBlur stdDeviation="20" in="shadowOffsetOuter1" result="shadowBlurOuter1"></feGaussianBlur>
            <feComposite in="shadowBlurOuter1" in2="SourceAlpha" operator="out" result="shadowBlurOuter1"></feComposite>
            <feColorMatrix values="0 0 0 0 0   0 0 0 0 0   0 0 0 0 0  0 0 0 0.5 0" type="matrix" in="shadowBlurOuter1">
            </feColorMatrix>
        </filter>
        <path
            d="M340,1600 L480,1600 L480,1600 L480,1920 L340,1920 C328.954305,1920 320,1911.04569 320,1900 L320,1620 C320,1608.95431 328.954305,1600 340,1600 Z"
            id="path-70"></path>
        <mask id="mask-71" maskContentUnits="userSpaceOnUse" maskUnits="objectBoundingBox" x="0" y="0" width="160"
            height="320" fill="white">
            <use xlink:href="#path-70"></use>
        </mask>
        <polygon id="path-72" points="879 1802 899 1842 859 1842"></polygon>
        <filter x="-137.5%" y="-137.5%" width="425.0%" height="425.0%" filterUnits="objectBoundingBox" id="filter-73">
            <feOffset dx="10" dy="10" in="SourceAlpha" result="shadowOffsetOuter1"></feOffset>
            <feGaussianBlur stdDeviation="20" in="shadowOffsetOuter1" result="shadowBlurOuter1"></feGaussianBlur>
            <feComposite in="shadowBlurOuter1" in2="SourceAlpha" operator="out" result="shadowBlurOuter1"></feComposite>
            <feColorMatrix values="0 0 0 0 0   0 0 0 0 0   0 0 0 0 0  0 0 0 0.5 0" type="matrix" in="shadowBlurOuter1">
            </feColorMatrix>
        </filter>
    </defs>
    <g id="Solution---Light" stroke="none" stroke-width="1" fill="none" fill-rule="evenodd">
        <use id="Rectangle" stroke="#CCCCCC" mask="url(#mask-2)" stroke-width="8" stroke-dasharray="5"
            xlink:href="#path-1"></use>
        <g id="Line-17" opacity="0.501023065" stroke-linecap="square" stroke-dasharray="10,20">
            <use fill="black" fill-opacity="1" filter="url(#filter-4)" xlink:href="#path-3"></use>
            <use stroke="#CCCCCC" stroke-width="10" xlink:href="#path-3"></use>
        </g>
        <g id="Line-17" opacity="0.501023065" stroke-linecap="square" stroke-dasharray="10,20">
            <use fill="black" fill-opacity="1" filter="url(#filter-6)" xlink:href="#path-5"></use>
            <use stroke="#CCCCCC" stroke-width="10" xlink:href="#path-5"></use>
        </g>
        <use id="Rectangle" stroke="#CCCCCC" mask="url(#mask-8)" stroke-width="10" stroke-dasharray="5"
            xlink:href="#path-7"></use>
        <use id="Rectangle" stroke="#CCCCCC" mask="url(#mask-10)" stroke-width="10" stroke-dasharray="5"
            xlink:href="#path-9"></use>
        <use id="Rectangle" stroke="#CCCCCC" mask="url(#mask-12)" stroke-width="10" stroke-dasharray="5"
            xlink:href="#path-11"></use>
        <use id="Rectangle" stroke="#CCCCCC" mask="url(#mask-14)" stroke-width="10" fill="#F7F8FA" stroke-dasharray="5"
            xlink:href="#path-13"></use>
        <g id="Rectangle">
            <use fill="black" fill-opacity="1" filter="url(#filter-16)" xlink:href="#path-15"></use>
            <use stroke="#4E515D" stroke-width="6" fill="#FFFFFF" fill-rule="evenodd" xlink:href="#path-15"></use>
        </g>
        <g id="Rectangle">
            <use fill="black" fill-opacity="1" filter="url(#filter-18)" xlink:href="#path-17"></use>
            <use stroke="#4E515D" stroke-width="6" fill="#FFFFFF" fill-rule="evenodd" xlink:href="#path-17"></use>
        </g>
        <g id="Rectangle">
            <use fill="black" fill-opacity="1" filter="url(#filter-20)" xlink:href="#path-19"></use>
            <use stroke="#CA2171" stroke-width="6" fill="#FFFFFF" fill-rule="evenodd" xlink:href="#path-19"></use>
        </g>
        <g id="Rectangle">
            <use fill="black" fill-opacity="1" filter="url(#filter-22)" xlink:href="#path-21"></use>
            <use stroke="#4E515D" stroke-width="6" fill="#FFFFFF" fill-rule="evenodd" xlink:href="#path-21"></use>
        </g>
        <g id="Rectangle">
            <use fill="black" fill-opacity="1" filter="url(#filter-24)" xlink:href="#path-23"></use>
            <use stroke="#4E515D" stroke-width="6" fill="#FFFFFF" fill-rule="evenodd" xlink:href="#path-23"></use>
        </g>
        <g id="Rectangle">
            <use fill="black" fill-opacity="1" filter="url(#filter-26)" xlink:href="#path-25"></use>
            <use stroke="#4E515D" stroke-width="6" fill="#FFFFFF" fill-rule="evenodd" xlink:href="#path-25"></use>
        </g>
        <g id="Rectangle">
            <use fill="black" fill-opacity="1" filter="url(#filter-28)" xlink:href="#path-27"></use>
            <use stroke="#4E515D" stroke-width="6" fill="#FFFFFF" fill-rule="evenodd" xlink:href="#path-27"></use>
        </g>
        <g id="Rectangle">
            <use fill="black" fill-opacity="1" filter="url(#filter-30)" xlink:href="#path-29"></use>
            <use stroke="#4E515D" stroke-width="6" fill="#FFFFFF" fill-rule="evenodd" xlink:href="#path-29"></use>
        </g>
        <g id="Rectangle">
            <use fill="black" fill-opacity="1" filter="url(#filter-32)" xlink:href="#path-31"></use>
            <use stroke="#4E515D" stroke-width="6" fill="#FFFFFF" fill-rule="evenodd" xlink:href="#path-31"></use>
        </g>
        <g id="Rectangle">
            <use fill="black" fill-opacity="1" filter="url(#filter-34)" xlink:href="#path-33"></use>
            <use stroke="#4E515D" stroke-width="6" fill="#FFFFFF" fill-rule="evenodd" xlink:href="#path-33"></use>
        </g>
        <g id="Rectangle">
            <use fill="black" fill-opacity="1" filter="url(#filter-36)" xlink:href="#path-35"></use>
            <use stroke="#4E515D" stroke-width="6" fill="#FFFFFF" fill-rule="evenodd" xlink:href="#path-35"></use>
        </g>
        <g id="Rectangle">
            <use fill="black" fill-opacity="1" filter="url(#filter-38)" xlink:href="#path-37"></use>
            <use stroke="#4E515D" stroke-width="6" fill="#FFFFFF" fill-rule="evenodd" xlink:href="#path-37"></use>
        </g>
        <g id="Oval">
            <use fill="black" fill-opacity="1" filter="url(#filter-40)" xlink:href="#path-39"></use>
            <use stroke="#CA2171" stroke-width="6" fill="#FFFFFF" fill-rule="evenodd" xlink:href="#path-39"></use>
        </g>
        <circle id="Oval" stroke="#CA2171" stroke-width="6" fill="#FFFFFF" cx="640" cy="1185" r="25"></circle>
        <g id="Rectangle" transform="translate(640, 960) rotate(45) translate(-640, -960)">
            <use fill="black" fill-opacity="1" filter="url(#filter-42)" xlink:href="#path-41"></use>
            <use stroke="#4E515D" stroke-width="6" fill="#FFFFFF" fill-rule="evenodd" xlink:href="#path-41"></use>
        </g>
        <path id="Line-4"
            d="M871.423704,946.150948 L900.499993,960.497355 L871.577094,975.150543 L871.513,963.15 L809.96033,963.47629 C805.833736,963.498117 802.5,966.849533 802.5,970.976185 L802.5,1279.02382 C802.5,1283.15047 805.833736,1286.50188 809.96033,1286.52371 L871.513,1286.849 L871.577094,1274.84946 L900.499993,1289.50264 L871.423704,1303.84905 L871.487,1291.849 L809.933884,1291.52364 C803.056226,1291.48726 797.5,1285.90157 797.5,1279.02382 L797.5,970.976185 C797.5,964.098432 803.056226,958.512738 809.933884,958.47636 L871.487,958.15 L871.423704,946.150948 Z"
            fill="#66A2FF" fill-rule="nonzero"></path>
        <path id="Line-2"
            d="M517.609853,945.717973 L517.518,957.717 L554.519083,958.000073 L557.019011,958.019156 L556.980844,963.019011 L554.480917,962.999927 L517.479,962.717 L517.388486,974.717128 L488.500015,959.996183 L517.609853,945.717973 Z"
            fill="#66A2FF" fill-rule="nonzero"></path>
        <line x1="723.5" y1="960.5" x2="891.5" y2="960.5" id="Line-5" stroke="#66A2FF" stroke-width="5" fill="#66A2FF"
            stroke-linecap="square"></line>
        <path id="Line-7"
            d="M2456.40713,636.687567 L2480.5,648.5 L2456.59433,660.686837 L2456.516,650.687 L2169.9376,652.922544 C2165.5438,652.956817 2162,656.528373 2162,660.922301 L2162,950.031299 C2162,956.64403 2156.65032,962.01051 2150.03762,962.03124 L2000.50627,962.49999 L1998.50628,962.50626 L1998.49374,958.506279 L2000.49373,958.50001 L2150.02508,958.03126 C2154.43354,958.01744 2158,954.439786 2158,950.031299 L2158,660.922301 C2158,654.331408 2163.31571,648.974076 2169.9064,648.922666 L2456.485,646.687 L2456.40713,636.687567 Z"
            fill="#66A2FF" fill-rule="nonzero"></path>
        <path id="Line-7"
            d="M3252.40965,634.678961 L3281.49999,648.996865 L3252.59147,663.678391 L3252.516,651.678 L2971.94677,653.437649 C2967.82306,653.463503 2964.49379,656.813717 2964.49379,660.937502 L2964.49379,950.061921 C2964.49379,956.935179 2958.94456,962.518988 2952.07143,962.56168 L2801.01553,963.499952 L2798.51558,963.51548 L2798.48452,958.515576 L2800.98447,958.500048 L2952.04037,957.561777 C2956.16425,957.536161 2959.49379,954.185876 2959.49379,950.061921 L2959.49379,660.937502 C2959.49379,654.064527 2965.04258,648.480837 2971.91542,648.437747 L3252.484,646.678 L3252.40965,634.678961 Z"
            fill="#66A2FF" fill-rule="nonzero"></path>
        <path id="Line-10"
            d="M2833,1747 L2833,1759 L2843,1759 L2843,1764 L2833,1764 L2833,1776 L2804,1761.5 L2833,1747 Z M2863,1759 L2863,1764 L2848,1764 L2848,1759 L2863,1759 Z M2883,1759 L2883,1764 L2868,1764 L2868,1759 L2883,1759 Z M2903,1759 L2903,1764 L2888,1764 L2888,1759 L2903,1759 Z M2923,1759 L2923,1764 L2908,1764 L2908,1759 L2923,1759 Z M2943,1759 L2943,1764 L2928,1764 L2928,1759 L2943,1759 Z M2963,1759 L2963,1764 L2948,1764 L2948,1759 L2963,1759 Z M2983,1759 L2983,1764 L2968,1764 L2968,1759 L2983,1759 Z M3003,1759 L3003,1764 L2988,1764 L2988,1759 L3003,1759 Z M3023,1759 L3023,1764 L3008,1764 L3008,1759 L3023,1759 Z M3043,1759 L3043,1764 L3028,1764 L3028,1759 L3043,1759 Z M3063,1759 L3063,1764 L3048,1764 L3048,1759 L3063,1759 Z M3083,1759 L3083,1764 L3068,1764 L3068,1759 L3083,1759 Z M3103,1759 L3103,1764 L3088,1764 L3088,1759 L3103,1759 Z M3123,1759 L3123,1764 L3108,1764 L3108,1759 L3123,1759 Z M3143,1759 L3143,1764 L3128,1764 L3128,1759 L3143,1759 Z M3163,1759 L3163,1764 L3148,1764 L3148,1759 L3163,1759 Z M3183,1759 L3183,1764 L3168,1764 L3168,1759 L3183,1759 Z M3203,1759 L3203,1764 L3188,1764 L3188,1759 L3203,1759 Z M3223,1759 L3223,1764 L3208,1764 L3208,1759 L3223,1759 Z M3243,1759 L3243,1764 L3228,1764 L3228,1759 L3243,1759 Z M3263,1759 L3263,1764 L3248,1764 L3248,1759 L3263,1759 Z M3283,1759 L3283,1764 L3268,1764 L3268,1759 L3283,1759 Z M3303,1759 L3303,1764 L3288,1764 L3288,1759 L3303,1759 Z M3323,1759 L3323,1764 L3308,1764 L3308,1759 L3323,1759 Z M3343,1759 L3343,1764 L3328,1764 L3328,1759 L3343,1759 Z M3363,1759 L3363,1764 L3348,1764 L3348,1759 L3363,1759 Z M3383,1759 L3383,1764 L3368,1764 L3368,1759 L3383,1759 Z M3403,1759 L3403,1764 L3388,1764 L3388,1759 L3403,1759 Z M3423,1759 L3423,1764 L3408,1764 L3408,1759 L3423,1759 Z M3438.18645,1753.367 L3442.41976,1756.02766 L3441.08943,1758.14431 C3438.81822,1761.75799 3434.84982,1764 3430.5,1764 L3428,1764 L3428,1759 L3430.5,1759 C3433.11225,1759 3435.49059,1757.65632 3436.85612,1755.48366 L3438.18645,1753.367 Z M3443,1734.60915 L3443,1749.60915 L3438,1749.60915 L3438,1734.60915 L3443,1734.60915 Z M3443,1714.60915 L3443,1729.60915 L3438,1729.60915 L3438,1714.60915 L3443,1714.60915 Z M3443,1694.60915 L3443,1709.60915 L3438,1709.60915 L3438,1694.60915 L3443,1694.60915 Z M3443,1674.60915 L3443,1689.60915 L3438,1689.60915 L3438,1674.60915 L3443,1674.60915 Z M3443,1654.60915 L3443,1669.60915 L3438,1669.60915 L3438,1654.60915 L3443,1654.60915 Z M3443,1634.60915 L3443,1649.60915 L3438,1649.60915 L3438,1634.60915 L3443,1634.60915 Z M3443,1614.60915 L3443,1629.60915 L3438,1629.60915 L3438,1614.60915 L3443,1614.60915 Z M3443,1594.60915 L3443,1609.60915 L3438,1609.60915 L3438,1594.60915 L3443,1594.60915 Z M3443,1574.60915 L3443,1589.60915 L3438,1589.60915 L3438,1574.60915 L3443,1574.60915 Z M3443,1554.60915 L3443,1569.60915 L3438,1569.60915 L3438,1554.60915 L3443,1554.60915 Z M3443,1534.60915 L3443,1549.60915 L3438,1549.60915 L3438,1534.60915 L3443,1534.60915 Z M3443,1514.60915 L3443,1529.60915 L3438,1529.60915 L3438,1514.60915 L3443,1514.60915 Z M3443,1494.60915 L3443,1509.60915 L3438,1509.60915 L3438,1494.60915 L3443,1494.60915 Z M3443,1474.60915 L3443,1489.60915 L3438,1489.60915 L3438,1474.60915 L3443,1474.60915 Z M3443,1454.60915 L3443,1469.60915 L3438,1469.60915 L3438,1454.60915 L3443,1454.60915 Z M3443,1434.60915 L3443,1449.60915 L3438,1449.60915 L3438,1434.60915 L3443,1434.60915 Z M3443,1414.60915 L3443,1429.60915 L3438,1429.60915 L3438,1414.60915 L3443,1414.60915 Z M3443,1394.60915 L3443,1409.60915 L3438,1409.60915 L3438,1394.60915 L3443,1394.60915 Z M3443,1374.60915 L3443,1389.60915 L3438,1389.60915 L3438,1374.60915 L3443,1374.60915 Z M3443,1354.60915 L3443,1369.60915 L3438,1369.60915 L3438,1354.60915 L3443,1354.60915 Z M3443,1334.60915 L3443,1349.60915 L3438,1349.60915 L3438,1334.60915 L3443,1334.60915 Z M3443,1314.60915 L3443,1329.60915 L3438,1329.60915 L3438,1314.60915 L3443,1314.60915 Z M3443,1294.60915 L3443,1309.60915 L3438,1309.60915 L3438,1294.60915 L3443,1294.60915 Z M3443,1274.60915 L3443,1289.60915 L3438,1289.60915 L3438,1274.60915 L3443,1274.60915 Z M3443,1254.60915 L3443,1269.60915 L3438,1269.60915 L3438,1254.60915 L3443,1254.60915 Z M3443,1234.60915 L3443,1249.60915 L3438,1249.60915 L3438,1234.60915 L3443,1234.60915 Z M3443,1214.60915 L3443,1229.60915 L3438,1229.60915 L3438,1214.60915 L3443,1214.60915 Z M3443,1194.60915 L3443,1209.60915 L3438,1209.60915 L3438,1194.60915 L3443,1194.60915 Z M3443,1174.60915 L3443,1189.60915 L3438,1189.60915 L3438,1174.60915 L3443,1174.60915 Z M3443,1154.60915 L3443,1169.60915 L3438,1169.60915 L3438,1154.60915 L3443,1154.60915 Z M3443,1134.60915 L3443,1149.60915 L3438,1149.60915 L3438,1134.60915 L3443,1134.60915 Z M3443,1114.60915 L3443,1129.60915 L3438,1129.60915 L3438,1114.60915 L3443,1114.60915 Z M3443,1094.60915 L3443,1109.60915 L3438,1109.60915 L3438,1094.60915 L3443,1094.60915 Z M3443,1074.60915 L3443,1089.60915 L3438,1089.60915 L3438,1074.60915 L3443,1074.60915 Z M3443,1054.60915 L3443,1069.60915 L3438,1069.60915 L3438,1054.60915 L3443,1054.60915 Z M3443,1034.60915 L3443,1049.60915 L3438,1049.60915 L3438,1034.60915 L3443,1034.60915 Z M3443,1014.60915 L3443,1029.60915 L3438,1029.60915 L3438,1014.60915 L3443,1014.60915 Z M3443,994.609152 L3443,1009.60915 L3438,1009.60915 L3438,994.609152 L3443,994.609152 Z M3443,974.609152 L3443,989.609152 L3438,989.609152 L3438,974.609152 L3443,974.609152 Z M3443,954.609152 L3443,969.609152 L3438,969.609152 L3438,954.609152 L3443,954.609152 Z M3443,934.609152 L3443,949.609152 L3438,949.609152 L3438,934.609152 L3443,934.609152 Z M3443,914.609152 L3443,929.609152 L3438,929.609152 L3438,914.609152 L3443,914.609152 Z M3443,894.609152 L3443,909.609152 L3438,909.609152 L3438,894.609152 L3443,894.609152 Z M3443,874.609152 L3443,889.609152 L3438,889.609152 L3438,874.609152 L3443,874.609152 Z M3443,854.609152 L3443,869.609152 L3438,869.609152 L3438,854.609152 L3443,854.609152 Z M3443,834.609152 L3443,849.609152 L3438,849.609152 L3438,834.609152 L3443,834.609152 Z M3443,814.609152 L3443,829.609152 L3438,829.609152 L3438,814.609152 L3443,814.609152 Z M3443,794.609152 L3443,809.609152 L3438,809.609152 L3438,794.609152 L3443,794.609152 Z M3443,774.609152 L3443,789.609152 L3438,789.609152 L3438,774.609152 L3443,774.609152 Z M3443,754.609152 L3443,769.609152 L3438,769.609152 L3438,754.609152 L3443,754.609152 Z M3440.5,714 L3455,743 L3443,743 L3443,749.609152 L3438,749.609152 L3438,743 L3426,743 L3440.5,714 Z"
            fill="#6BD8B4" fill-rule="nonzero"></path>
        <path id="Line-11"
            d="M2451.50932,1748.48137 L2475.5,1760.5 L2451.49069,1772.48137 L2451.498,1762.481 L2443.5007,1762.47516 L2441.5007,1762.47361 L2441.5038,1758.47361 L2443.5038,1758.47516 L2451.501,1758.481 L2451.50932,1748.48137 Z M2421.50381,1758.45809 L2423.50381,1758.45964 L2433.50381,1758.4674 L2435.50381,1758.46895 L2435.5007,1762.46895 L2433.5007,1762.4674 L2423.5007,1762.45964 L2421.50071,1762.45808 L2421.50381,1758.45809 Z M2401.50382,1758.44256 L2403.50382,1758.44411 L2413.50381,1758.45188 L2415.50381,1758.45343 L2415.50071,1762.45343 L2413.50071,1762.45187 L2403.50071,1762.44411 L2401.50071,1762.44256 L2401.50382,1758.44256 Z M2381.50382,1758.42704 L2383.50382,1758.42859 L2393.50382,1758.43635 L2395.50382,1758.4379 L2395.50071,1762.4379 L2393.50071,1762.43635 L2383.50072,1762.42859 L2381.50072,1762.42703 L2381.50382,1758.42704 Z M2361.50383,1758.41151 L2363.50383,1758.41306 L2373.50382,1758.42083 L2375.50382,1758.42238 L2375.50072,1762.42238 L2373.50072,1762.42082 L2363.50072,1762.41306 L2361.50072,1762.41151 L2361.50383,1758.41151 Z M2341.50383,1758.39599 L2343.50383,1758.39754 L2353.50383,1758.4053 L2355.50383,1758.40685 L2355.50073,1762.40685 L2353.50073,1762.4053 L2343.50073,1762.39754 L2341.50073,1762.39598 L2341.50383,1758.39599 Z M2321.50384,1758.38046 L2323.50384,1758.38201 L2333.50384,1758.38978 L2335.50384,1758.39133 L2335.50073,1762.39133 L2333.50073,1762.38977 L2323.50073,1762.38201 L2321.50074,1762.38046 L2321.50384,1758.38046 Z M2301.50385,1758.36494 L2303.50385,1758.36649 L2313.50384,1758.37425 L2315.50384,1758.3758 L2315.50074,1762.3758 L2313.50074,1762.37425 L2303.50074,1762.36649 L2301.50074,1762.36493 L2301.50385,1758.36494 Z M2281.50385,1758.34941 L2283.50385,1758.35096 L2293.50385,1758.35873 L2295.50385,1758.36028 L2295.50074,1762.36028 L2293.50074,1762.35872 L2283.50075,1762.35096 L2281.50075,1762.34941 L2281.50385,1758.34941 Z M2261.50386,1758.33389 L2263.50386,1758.33544 L2273.50385,1758.3432 L2275.50385,1758.34475 L2275.50075,1762.34475 L2273.50075,1762.3432 L2263.50075,1762.33544 L2261.50075,1762.33388 L2261.50386,1758.33389 Z M2241.50386,1758.31836 L2243.50386,1758.31991 L2253.50386,1758.32768 L2255.50386,1758.32923 L2255.50076,1762.32923 L2253.50076,1762.32767 L2243.50076,1762.31991 L2241.50076,1762.31836 L2241.50386,1758.31836 Z M2221.50387,1758.30284 L2223.50387,1758.30439 L2233.50387,1758.31215 L2235.50387,1758.3137 L2235.50076,1762.3137 L2233.50076,1762.31215 L2223.50076,1762.30439 L2221.50077,1762.30283 L2221.50387,1758.30284 Z M2201.50388,1758.28731 L2203.50388,1758.28886 L2213.50387,1758.29663 L2215.50387,1758.29818 L2215.50077,1762.29818 L2213.50077,1762.29662 L2203.50077,1762.28886 L2201.50077,1762.28731 L2201.50388,1758.28731 Z M2181.50388,1758.27179 L2183.50388,1758.27334 L2193.50388,1758.2811 L2195.50388,1758.28265 L2195.50077,1762.28265 L2193.50077,1762.2811 L2183.50078,1762.27334 L2181.50078,1762.27178 L2181.50388,1758.27179 Z M2161.50389,1758.25626 L2163.50389,1758.25781 L2173.50388,1758.26558 L2175.50388,1758.26713 L2175.50078,1762.26713 L2173.50078,1762.26557 L2163.50078,1762.25781 L2161.50078,1762.25626 L2161.50389,1758.25626 Z M2141.50389,1758.24074 L2143.50389,1758.24229 L2153.50389,1758.25005 L2155.50389,1758.2516 L2155.50079,1762.2516 L2153.50079,1762.25005 L2143.50079,1762.24229 L2141.50079,1762.24073 L2141.50389,1758.24074 Z M2121.5039,1758.22521 L2123.5039,1758.22676 L2133.5039,1758.23453 L2135.5039,1758.23608 L2135.50079,1762.23608 L2133.50079,1762.23452 L2123.50079,1762.22676 L2121.5008,1762.22521 L2121.5039,1758.22521 Z M2101.50391,1758.20969 L2103.50391,1758.21124 L2113.5039,1758.219 L2115.5039,1758.22055 L2115.5008,1762.22055 L2113.5008,1762.219 L2103.5008,1762.21124 L2101.5008,1762.20968 L2101.50391,1758.20969 Z M2081.50391,1758.19416 L2083.50391,1758.19571 L2093.50391,1758.20348 L2095.50391,1758.20503 L2095.5008,1762.20503 L2093.5008,1762.20347 L2083.50081,1762.19571 L2081.50081,1762.19416 L2081.50391,1758.19416 Z M2061.50392,1758.17864 L2063.50392,1758.18019 L2073.50392,1758.18795 L2075.50391,1758.1895 L2075.50081,1762.1895 L2073.50081,1762.18795 L2063.50081,1762.18019 L2061.50081,1762.17863 L2061.50392,1758.17864 Z M2041.50392,1758.16311 L2043.50392,1758.16466 L2053.50392,1758.17243 L2055.50392,1758.17398 L2055.50082,1762.17398 L2053.50082,1762.17242 L2043.50082,1762.16466 L2041.50082,1762.16311 L2041.50392,1758.16311 Z M2021.50393,1758.14759 L2023.50393,1758.14914 L2033.50393,1758.1569 L2035.50393,1758.15845 L2035.50082,1762.15845 L2033.50082,1762.1569 L2023.50083,1762.14914 L2021.50083,1762.14759 L2021.50393,1758.14759 Z M2001.50394,1758.13206 L2003.50394,1758.13361 L2013.50393,1758.14138 L2015.50393,1758.14293 L2015.50083,1762.14293 L2013.50083,1762.14138 L2003.50083,1762.13361 L2001.50083,1762.13206 L2001.50394,1758.13206 Z M1981.50394,1758.11654 L1983.50394,1758.11809 L1993.50394,1758.12585 L1995.50394,1758.1274 L1995.50083,1762.1274 L1993.50083,1762.12585 L1983.50084,1762.11809 L1981.50084,1762.11654 L1981.50394,1758.11654 Z M1961.50395,1758.10101 L1963.50395,1758.10256 L1973.50395,1758.11033 L1975.50394,1758.11188 L1975.50084,1762.11188 L1973.50084,1762.11033 L1963.50084,1762.10256 L1961.50084,1762.10101 L1961.50395,1758.10101 Z M1941.50395,1758.08549 L1943.50395,1758.08704 L1953.50395,1758.0948 L1955.50395,1758.09635 L1955.50085,1762.09635 L1953.50085,1762.0948 L1943.50085,1762.08704 L1941.50085,1762.08549 L1941.50395,1758.08549 Z M1921.50396,1758.06996 L1923.50396,1758.07151 L1933.50396,1758.07928 L1935.50396,1758.08083 L1935.50085,1762.08083 L1933.50085,1762.07928 L1923.50086,1762.07151 L1921.50086,1762.06996 L1921.50396,1758.06996 Z M1901.50397,1758.05444 L1903.50397,1758.05599 L1913.50396,1758.06375 L1915.50396,1758.0653 L1915.50086,1762.0653 L1913.50086,1762.06375 L1903.50086,1762.05599 L1901.50086,1762.05444 L1901.50397,1758.05444 Z M1881.50397,1758.03891 L1883.50397,1758.04046 L1893.50397,1758.04823 L1895.50397,1758.04978 L1895.50086,1762.04978 L1893.50086,1762.04823 L1883.50087,1762.04046 L1881.50087,1762.03891 L1881.50397,1758.03891 Z M1861.50398,1758.02339 L1863.50398,1758.02494 L1873.50398,1758.0327 L1875.50397,1758.03425 L1875.50087,1762.03425 L1873.50087,1762.0327 L1863.50087,1762.02494 L1861.50087,1762.02339 L1861.50398,1758.02339 Z M1843.53439,1755.18407 L1845.12776,1756.39285 C1846.50607,1757.43848 1848.18228,1758.01305 1849.95109,1758.01442 L1853.50398,1758.01718 L1855.50398,1758.01873 L1855.50088,1762.01873 L1853.50088,1762.01718 L1849.94798,1762.01442 C1847.29961,1762.01236 1844.77729,1761.14777 1842.71019,1759.5796 L1841.11682,1758.37081 L1843.53439,1755.18407 Z M1841.94924,1737.16771 L1841.95049,1739.16771 L1841.95676,1749.16771 L1841.95802,1751.16771 L1837.95802,1751.17022 L1837.95676,1749.17022 L1837.9505,1739.17022 L1837.94924,1737.17022 L1841.94924,1737.16771 Z M1841.9367,1717.16772 L1841.93796,1719.16772 L1841.94423,1729.16772 L1841.94548,1731.16772 L1837.94548,1731.17022 L1837.94423,1729.17022 L1837.93796,1719.17023 L1837.9367,1717.17023 L1841.9367,1717.16772 Z M1841.92417,1697.16772 L1841.92542,1699.16772 L1841.93169,1709.16772 L1841.93294,1711.16772 L1837.93294,1711.17023 L1837.93169,1709.17023 L1837.92542,1699.17023 L1837.92417,1697.17023 L1841.92417,1697.16772 Z M1841.91163,1677.16773 L1841.91288,1679.16773 L1841.91915,1689.16772 L1841.92041,1691.16772 L1837.92041,1691.17023 L1837.91915,1689.17023 L1837.91288,1679.17023 L1837.91163,1677.17023 L1841.91163,1677.16773 Z M1841.89909,1657.16773 L1841.90035,1659.16773 L1841.90662,1669.16773 L1841.90787,1671.16773 L1837.90787,1671.17023 L1837.90662,1669.17023 L1837.90035,1659.17024 L1837.89909,1657.17024 L1841.89909,1657.16773 Z M1841.88656,1637.16773 L1841.88781,1639.16773 L1841.89408,1649.16773 L1841.89533,1651.16773 L1837.89533,1651.17024 L1837.89408,1649.17024 L1837.88781,1639.17024 L1837.88656,1637.17024 L1841.88656,1637.16773 Z M1841.87402,1617.16774 L1841.87527,1619.16774 L1841.88154,1629.16774 L1841.8828,1631.16774 L1837.8828,1631.17024 L1837.88154,1629.17024 L1837.87527,1619.17024 L1837.87402,1617.17025 L1841.87402,1617.16774 Z M1841.86148,1597.16774 L1841.86274,1599.16774 L1841.869,1609.16774 L1841.87026,1611.16774 L1837.87026,1611.17025 L1837.86901,1609.17025 L1837.86274,1599.17025 L1837.86148,1597.17025 L1841.86148,1597.16774 Z M1841.84895,1577.16775 L1841.8502,1579.16775 L1841.85647,1589.16774 L1841.85772,1591.16774 L1837.85772,1591.17025 L1837.85647,1589.17025 L1837.8502,1579.17025 L1837.84895,1577.17025 L1841.84895,1577.16775 Z M1841.83641,1557.16775 L1841.83766,1559.16775 L1841.84393,1569.16775 L1841.84518,1571.16775 L1837.84519,1571.17025 L1837.84393,1569.17025 L1837.83766,1559.17026 L1837.83641,1557.17026 L1841.83641,1557.16775 Z M1841.82387,1537.16775 L1841.82513,1539.16775 L1841.83139,1549.16775 L1841.83265,1551.16775 L1837.83265,1551.17026 L1837.83139,1549.17026 L1837.82513,1539.17026 L1837.82387,1537.17026 L1841.82387,1537.16775 Z M1841.81133,1517.16776 L1841.81259,1519.16776 L1841.81886,1529.16776 L1841.82011,1531.16775 L1837.82011,1531.17026 L1837.81886,1529.17026 L1837.81259,1519.17026 L1837.81134,1517.17026 L1841.81133,1517.16776 Z M1841.7988,1497.16776 L1841.80005,1499.16776 L1841.80632,1509.16776 L1841.80757,1511.16776 L1837.80757,1511.17027 L1837.80632,1509.17027 L1837.80005,1499.17027 L1837.7988,1497.17027 L1841.7988,1497.16776 Z M1841.78626,1477.16777 L1841.78751,1479.16776 L1841.79378,1489.16776 L1841.79504,1491.16776 L1837.79504,1491.17027 L1837.79378,1489.17027 L1837.78752,1479.17027 L1837.78626,1477.17027 L1841.78626,1477.16777 Z M1841.77372,1457.16777 L1841.77498,1459.16777 L1841.78125,1469.16777 L1841.7825,1471.16777 L1837.7825,1471.17027 L1837.78125,1469.17027 L1837.77498,1459.17028 L1837.77372,1457.17028 L1841.77372,1457.16777 Z M1841.76119,1437.16777 L1841.76244,1439.16777 L1841.76871,1449.16777 L1841.76996,1451.16777 L1837.76996,1451.17028 L1837.76871,1449.17028 L1837.76244,1439.17028 L1837.76119,1437.17028 L1841.76119,1437.16777 Z M1841.74865,1417.16778 L1841.7499,1419.16778 L1841.75617,1429.16777 L1841.75743,1431.16777 L1837.75743,1431.17028 L1837.75617,1429.17028 L1837.7499,1419.17028 L1837.74865,1417.17028 L1841.74865,1417.16778 Z M1841.73611,1397.16778 L1841.73737,1399.16778 L1841.74364,1409.16778 L1841.74489,1411.16778 L1837.74489,1411.17029 L1837.74364,1409.17029 L1837.73737,1399.17029 L1837.73611,1397.17029 L1841.73611,1397.16778 Z M1841.72358,1377.16778 L1841.72483,1379.16778 L1841.7311,1389.16778 L1841.73235,1391.16778 L1837.73235,1391.17029 L1837.7311,1389.17029 L1837.72483,1379.17029 L1837.72358,1377.17029 L1841.72358,1377.16778 Z M1841.71104,1357.16779 L1841.71229,1359.16779 L1841.71856,1369.16779 L1841.71982,1371.16779 L1837.71982,1371.17029 L1837.71856,1369.17029 L1837.71229,1359.1703 L1837.71104,1357.1703 L1841.71104,1357.16779 Z M1841.6985,1337.16779 L1841.69976,1339.16779 L1841.70602,1349.16779 L1841.70728,1351.16779 L1837.70728,1351.1703 L1837.70603,1349.1703 L1837.69976,1339.1703 L1837.6985,1337.1703 L1841.6985,1337.16779 Z M1841.68597,1317.1678 L1841.68722,1319.1678 L1841.69349,1329.16779 L1841.69474,1331.16779 L1837.69474,1331.1703 L1837.69349,1329.1703 L1837.68722,1319.1703 L1837.68597,1317.1703 L1841.68597,1317.1678 Z M1841.67343,1297.1678 L1841.67468,1299.1678 L1841.68095,1309.1678 L1841.6822,1311.1678 L1837.68221,1311.17031 L1837.68095,1309.17031 L1837.67468,1299.17031 L1837.67343,1297.17031 L1841.67343,1297.1678 Z M1841.66089,1277.1678 L1841.66215,1279.1678 L1841.66841,1289.1678 L1841.66967,1291.1678 L1837.66967,1291.17031 L1837.66841,1289.17031 L1837.66215,1279.17031 L1837.66089,1277.17031 L1841.66089,1277.1678 Z M1841.64835,1257.16781 L1841.64961,1259.16781 L1841.65588,1269.16781 L1841.65713,1271.16781 L1837.65713,1271.17031 L1837.65588,1269.17031 L1837.64961,1259.17032 L1837.64836,1257.17032 L1841.64835,1257.16781 Z M1841.63582,1237.16781 L1841.63707,1239.16781 L1841.64334,1249.16781 L1841.64459,1251.16781 L1837.64459,1251.17032 L1837.64334,1249.17032 L1837.63707,1239.17032 L1837.63582,1237.17032 L1841.63582,1237.16781 Z M1841.62328,1217.16782 L1841.62453,1219.16782 L1841.6308,1229.16781 L1841.63206,1231.16781 L1837.63206,1231.17032 L1837.6308,1229.17032 L1837.62454,1219.17032 L1837.62328,1217.17032 L1841.62328,1217.16782 Z M1841.61074,1197.16782 L1841.612,1199.16782 L1841.61827,1209.16782 L1841.61952,1211.16782 L1837.61952,1211.17032 L1837.61827,1209.17033 L1837.612,1199.17033 L1837.61074,1197.17033 L1841.61074,1197.16782 Z M1841.59821,1177.16782 L1841.59946,1179.16782 L1841.60573,1189.16782 L1841.60698,1191.16782 L1837.60698,1191.17033 L1837.60573,1189.17033 L1837.59946,1179.17033 L1837.59821,1177.17033 L1841.59821,1177.16782 Z M1841.58567,1157.16783 L1841.58692,1159.16783 L1841.59319,1169.16783 L1841.59445,1171.16783 L1837.59445,1171.17033 L1837.59319,1169.17033 L1837.58692,1159.17034 L1837.58567,1157.17034 L1841.58567,1157.16783 Z M1841.57313,1137.16783 L1841.57439,1139.16783 L1841.58066,1149.16783 L1841.58191,1151.16783 L1837.58191,1151.17034 L1837.58066,1149.17034 L1837.57439,1139.17034 L1837.57313,1137.17034 L1841.57313,1137.16783 Z M1841.5606,1117.16784 L1841.56185,1119.16784 L1841.56812,1129.16783 L1841.56937,1131.16783 L1837.56937,1131.17034 L1837.56812,1129.17034 L1837.56185,1119.17034 L1837.5606,1117.17034 L1841.5606,1117.16784 Z M1841.54806,1097.16784 L1841.54931,1099.16784 L1841.55558,1109.16784 L1841.55684,1111.16784 L1837.55684,1111.17034 L1837.55558,1109.17034 L1837.54931,1099.17035 L1837.54806,1097.17035 L1841.54806,1097.16784 Z M1841.53552,1077.16784 L1841.53678,1079.16784 L1841.54304,1089.16784 L1841.5443,1091.16784 L1837.5443,1091.17035 L1837.54305,1089.17035 L1837.53678,1079.17035 L1837.53552,1077.17035 L1841.53552,1077.16784 Z M1841.52299,1057.16785 L1841.52424,1059.16785 L1841.53051,1069.16785 L1841.53176,1071.16785 L1837.53176,1071.17035 L1837.53051,1069.17035 L1837.52424,1059.17035 L1837.52299,1057.17036 L1841.52299,1057.16785 Z M1839.5,1020.5 L1851.51504,1044.49247 L1841.514,1044.498 L1841.51797,1049.16785 L1841.51922,1051.16785 L1837.51923,1051.17036 L1837.51797,1049.17036 L1837.514,1044.501 L1827.51505,1044.50752 L1839.5,1020.5 Z"
            fill="#6BD8B4" fill-rule="nonzero"></path>
        <path id="Line-12"
            d="M1062,1212 L1062,1227 L1057,1227 L1057,1212 L1062,1212 Z M1062,1192 L1062,1207 L1057,1207 L1057,1192 L1062,1192 Z M1062,1172 L1062,1187 L1057,1187 L1057,1172 L1062,1172 Z M1062,1152 L1062,1167 L1057,1167 L1057,1152 L1062,1152 Z M1062,1132 L1062,1147 L1057,1147 L1057,1132 L1062,1132 Z M1062,1112 L1062,1127 L1057,1127 L1057,1112 L1062,1112 Z M1062,1092 L1062,1107 L1057,1107 L1057,1092 L1062,1092 Z M1062,1072 L1062,1087 L1057,1087 L1057,1072 L1062,1072 Z M1059.5,1030 L1074,1059 L1062,1059 L1062,1067 L1057,1067 L1057,1059 L1045,1059 L1059.5,1030 Z"
            fill="#6BD8B4" fill-rule="nonzero"></path>
        <path id="Line"
            d="M308.537566,633.574075 L308.506,645.574 L444.006,645.925 L444.037758,633.926023 L472.999998,648.501299 L443.962434,662.925925 L443.993,650.925 L308.493,650.574 L308.462242,662.573977 L279.500002,647.998701 L308.537566,633.574075 Z"
            fill="#66A2FF" fill-rule="nonzero"></path>
        <path id="Line-7"
            d="M1841.9931,711.993122 L1841.99999,714.493113 L1842.421,867.493 L1854.42143,867.460163 L1840.00138,896.499998 L1825.42154,867.540053 L1837.421,867.507 L1837.00001,714.506887 L1836.99312,712.006897 L1841.9931,711.993122 Z"
            fill="#66A2FF" fill-rule="nonzero"></path>
        <path id="Line-8" d="M2642,712 L2642,868 L2654,868 L2639.5,897 L2625,868 L2637,868 L2637,712 L2642,712 Z"
            fill="#66A2FF" fill-rule="nonzero"></path>
        <path id="Line-6"
            d="M642.5,709.5 L642.5,842.5 L654.5,842.5 L640,871.5 L625.5,842.5 L637.5,842.5 L637.5,709.5 L642.5,709.5 Z"
            fill="#66A2FF" fill-rule="nonzero"></path>
        <path id="Line-3"
            d="M642.5,1046.5 L642.5,1114.5 L654.5,1114.5 L640,1143.5 L625.5,1114.5 L637.5,1114.5 L637.5,1046.5 L642.5,1046.5 Z"
            fill="#66A2FF" fill-rule="nonzero"></path>
        <path id="Line-13"
            d="M2639.5,1354 L2625,1383 L2654,1383 L2639.5,1354 Z M2642,1687 L2642,1702 L2637,1702 L2637,1687 L2642,1687 Z M2642,1667 L2642,1682 L2637,1682 L2637,1667 L2642,1667 Z M2642,1647 L2642,1662 L2637,1662 L2637,1647 L2642,1647 Z M2642,1627 L2642,1642 L2637,1642 L2637,1627 L2642,1627 Z M2642,1607 L2642,1622 L2637,1622 L2637,1607 L2642,1607 Z M2642,1587 L2642,1602 L2637,1602 L2637,1587 L2642,1587 Z M2642,1567 L2642,1582 L2637,1582 L2637,1567 L2642,1567 Z M2642,1547 L2642,1562 L2637,1562 L2637,1547 L2642,1547 Z M2642,1527 L2642,1542 L2637,1542 L2637,1527 L2642,1527 Z M2642,1507 L2642,1522 L2637,1522 L2637,1507 L2642,1507 Z M2642,1487 L2642,1502 L2637,1502 L2637,1487 L2642,1487 Z M2642,1467 L2642,1482 L2637,1482 L2637,1467 L2642,1467 Z M2642,1447 L2642,1462 L2637,1462 L2637,1447 L2642,1447 Z M2642,1427 L2642,1442 L2637,1442 L2637,1427 L2642,1427 Z M2642,1407 L2642,1422 L2637,1422 L2637,1407 L2642,1407 Z M2642,1387 L2642,1402 L2637,1402 L2637,1387 L2642,1387 Z"
            fill="#6BD8B4" fill-rule="nonzero"></path>
        <path id="Line-9" d="M2641,1029 L2641,1197 L2651,1197 L2639,1221 L2627,1197 L2637,1197 L2637,1029 L2641,1029 Z"
            fill="#66A2FF" fill-rule="nonzero"></path>
        <use id="Rectangle" stroke="#CCCCCC" mask="url(#mask-44)" stroke-width="10" fill-opacity="0.5" fill="#E5E6EB"
            stroke-dasharray="5" xlink:href="#path-43"></use>
        <use id="Rectangle" stroke="#CCCCCC" mask="url(#mask-46)" stroke-width="10" fill-opacity="0.5" fill="#E5E6EB"
            stroke-dasharray="5" xlink:href="#path-45"></use>
        <use id="Rectangle" stroke="#CCCCCC" mask="url(#mask-48)" stroke-width="10" fill-opacity="0.5" fill="#E5E6EB"
            stroke-dasharray="5" xlink:href="#path-47"></use>
        <use id="Rectangle" stroke="#CCCCCC" mask="url(#mask-50)" stroke-width="10" fill-opacity="0.5" fill="#E5E6EB"
            stroke-dasharray="5" xlink:href="#path-49"></use>
        <use id="Rectangle" stroke="#CCCCCC" mask="url(#mask-52)" stroke-width="10" fill-opacity="0.5" fill="#E5E6EB"
            stroke-dasharray="5" xlink:href="#path-51"></use>
        <text id="FRONT-END" font-family="HelveticaNeue-Bold, Helvetica Neue" font-size="60" font-weight="bold"
            letter-spacing="-0.12" fill="#373942">
            <tspan x="624.95" y="404">FRONT END</tspan>
        </text>
        <g id="Group" filter="url(#filter-53)" transform="translate(770, 930)">
            <circle id="Oval" stroke="#F7F8FA" stroke-width="6" fill="#FFFFFF" cx="30" cy="30" r="30"></circle>
            <circle id="Oval" stroke="#6BD8B4" stroke-width="6" fill="#FFFFFF" cx="30" cy="30" r="25"></circle>
            <line x1="38.25" y1="21" x2="28.75" y2="39.5" id="Line-15" stroke="#6BD8B4" stroke-width="5"
                stroke-linecap="square"></line>
            <line x1="21" y1="34.75" x2="28.5" y2="39.25" id="Line-15" stroke="#6BD8B4" stroke-width="5"
                stroke-linecap="square"></line>
        </g>
        <path id="Line-11"
            d="M1818.00088,1757.99561 L1830.50088,1758 L1833.00088,1758.00088 L1832.99912,1763.00088 L1830.49912,1763 L1820.49912,1762.99649 L1817.99912,1762.99561 L1818.00088,1757.99561 Z M1798.00088,1757.98858 L1800.50088,1757.98946 L1810.50088,1757.99297 L1813.00088,1757.99385 L1812.99912,1762.99385 L1810.49912,1762.99297 L1800.49912,1762.98946 L1797.99912,1762.98858 L1798.00088,1757.98858 Z M1778.00088,1757.98156 L1780.50088,1757.98243 L1790.50088,1757.98595 L1793.00088,1757.98683 L1792.99912,1762.98683 L1790.49912,1762.98595 L1780.49912,1762.98243 L1777.99912,1762.98156 L1778.00088,1757.98156 Z M1758.00088,1757.97453 L1760.50088,1757.97541 L1770.50088,1757.97892 L1773.00088,1757.9798 L1772.99913,1762.9798 L1770.49913,1762.97892 L1760.49913,1762.97541 L1757.99913,1762.97453 L1758.00088,1757.97453 Z M1738.00088,1757.9675 L1740.50088,1757.96838 L1750.50088,1757.97189 L1753.00088,1757.97277 L1752.99913,1762.97277 L1750.49913,1762.97189 L1740.49913,1762.96838 L1737.99913,1762.9675 L1738.00088,1757.9675 Z M1718.00089,1757.96048 L1720.50089,1757.96136 L1730.50088,1757.96487 L1733.00088,1757.96575 L1732.99913,1762.96575 L1730.49913,1762.96487 L1720.49913,1762.96136 L1717.99913,1762.96048 L1718.00089,1757.96048 Z M1698.00089,1757.95345 L1700.50089,1757.95433 L1710.50089,1757.95784 L1713.00089,1757.95872 L1712.99913,1762.95872 L1710.49913,1762.95784 L1700.49913,1762.95433 L1697.99913,1762.95345 L1698.00089,1757.95345 Z M1678.00089,1757.94642 L1680.50089,1757.9473 L1690.50089,1757.95082 L1693.00089,1757.95169 L1692.99913,1762.95169 L1690.49913,1762.95082 L1680.49913,1762.9473 L1677.99913,1762.94642 L1678.00089,1757.94642 Z M1658.00089,1757.9394 L1660.50089,1757.94028 L1670.50089,1757.94379 L1673.00089,1757.94467 L1672.99913,1762.94467 L1670.49913,1762.94379 L1660.49913,1762.94028 L1657.99913,1762.9394 L1658.00089,1757.9394 Z M1638.00089,1757.93237 L1640.50089,1757.93325 L1650.50089,1757.93676 L1653.00089,1757.93764 L1652.99913,1762.93764 L1650.49913,1762.93676 L1640.49913,1762.93325 L1637.99913,1762.93237 L1638.00089,1757.93237 Z M1618.00089,1757.92535 L1620.50089,1757.92622 L1630.50089,1757.92974 L1633.00089,1757.93062 L1632.99913,1762.93062 L1630.49913,1762.92974 L1620.49913,1762.92622 L1617.99913,1762.92535 L1618.00089,1757.92535 Z M1598.00089,1757.91832 L1600.50089,1757.9192 L1610.50089,1757.92271 L1613.00089,1757.92359 L1612.99914,1762.92359 L1610.49914,1762.92271 L1600.49914,1762.9192 L1597.99914,1762.91832 L1598.00089,1757.91832 Z M1578.00089,1757.91129 L1580.50089,1757.91217 L1590.50089,1757.91568 L1593.00089,1757.91656 L1592.99914,1762.91656 L1590.49914,1762.91568 L1580.49914,1762.91217 L1577.99914,1762.91129 L1578.00089,1757.91129 Z M1558.0009,1757.90427 L1560.50089,1757.90515 L1570.50089,1757.90866 L1573.00089,1757.90954 L1572.99914,1762.90954 L1570.49914,1762.90866 L1560.49914,1762.90514 L1557.99914,1762.90427 L1558.0009,1757.90427 Z M1538.0009,1757.89724 L1540.5009,1757.89812 L1550.5009,1757.90163 L1553.0009,1757.90251 L1552.99914,1762.90251 L1550.49914,1762.90163 L1540.49914,1762.89812 L1537.99914,1762.89724 L1538.0009,1757.89724 Z M1518.0009,1757.89021 L1520.5009,1757.89109 L1530.5009,1757.89461 L1533.0009,1757.89548 L1532.99914,1762.89548 L1530.49914,1762.89461 L1520.49914,1762.89109 L1517.99914,1762.89021 L1518.0009,1757.89021 Z M1498.0009,1757.88319 L1500.5009,1757.88407 L1510.5009,1757.88758 L1513.0009,1757.88846 L1512.99914,1762.88846 L1510.49914,1762.88758 L1500.49914,1762.88407 L1497.99914,1762.88319 L1498.0009,1757.88319 Z M1478.0009,1757.87616 L1480.5009,1757.87704 L1490.5009,1757.88055 L1493.0009,1757.88143 L1492.99914,1762.88143 L1490.49914,1762.88055 L1480.49914,1762.87704 L1477.99914,1762.87616 L1478.0009,1757.87616 Z M1458.0009,1757.86914 L1460.5009,1757.87001 L1470.5009,1757.87353 L1473.0009,1757.8744 L1472.99914,1762.8744 L1470.49914,1762.87353 L1460.49914,1762.87001 L1457.99914,1762.86913 L1458.0009,1757.86914 Z M1440.5009,1757.86299 L1453.0009,1757.86738 L1452.99915,1762.86738 L1440.49915,1762.86299 L1437.99915,1762.86211 L1438.0009,1757.86211 L1440.5009,1757.86299 Z M1420.5009,1757.85596 L1433.0009,1757.86035 L1432.99915,1762.86035 L1420.49915,1762.85596 L1417.99915,1762.85508 L1418.0009,1757.85508 L1420.5009,1757.85596 Z M1400.5009,1757.84893 L1413.0009,1757.85333 L1412.99915,1762.85333 L1400.49915,1762.84893 L1397.99915,1762.84806 L1398.0009,1757.84806 L1400.5009,1757.84893 Z M1380.50091,1757.84191 L1393.00091,1757.8463 L1392.99915,1762.8463 L1380.49915,1762.84191 L1377.99915,1762.84103 L1378.00091,1757.84103 L1380.50091,1757.84191 Z M1360.50091,1757.83488 L1373.00091,1757.83927 L1372.99915,1762.83927 L1360.49915,1762.83488 L1357.99915,1762.834 L1358.00091,1757.834 L1360.50091,1757.83488 Z M1338.00091,1757.82698 L1353.00091,1757.83225 L1352.99915,1762.83225 L1337.99915,1762.82698 L1338.00091,1757.82698 Z M1318.00091,1757.81995 L1333.00091,1757.82522 L1332.99915,1762.82522 L1317.99915,1762.81995 L1318.00091,1757.81995 Z M1298.00091,1757.81292 L1313.00091,1757.81819 L1312.99915,1762.81819 L1297.99915,1762.81292 L1298.00091,1757.81292 Z M1278.00091,1757.8059 L1293.00091,1757.81117 L1292.99915,1762.81117 L1277.99916,1762.8059 L1278.00091,1757.8059 Z M1258.00091,1757.79887 L1273.00091,1757.80414 L1272.99916,1762.80414 L1257.99916,1762.79887 L1258.00091,1757.79887 Z M1238.00091,1757.79185 L1253.00091,1757.79712 L1252.99916,1762.79712 L1237.99916,1762.79185 L1238.00091,1757.79185 Z M1218.00092,1757.78482 L1233.00092,1757.79009 L1232.99916,1762.79009 L1217.99916,1762.78482 L1218.00092,1757.78482 Z M1198.00092,1757.77779 L1213.00092,1757.78306 L1212.99916,1762.78306 L1197.99916,1762.77779 L1198.00092,1757.77779 Z M1178.00092,1757.77077 L1193.00092,1757.77604 L1192.99916,1762.77604 L1177.99916,1762.77077 L1178.00092,1757.77077 Z M1158.00092,1757.76374 L1173.00092,1757.76901 L1172.99916,1762.76901 L1157.99916,1762.76374 L1158.00092,1757.76374 Z M1138.00092,1757.75671 L1150.50092,1757.76111 L1153.00092,1757.76198 L1152.99916,1762.76198 L1150.49916,1762.76111 L1137.99916,1762.75671 L1138.00092,1757.75671 Z M1118.00092,1757.74969 L1130.50092,1757.75408 L1133.00092,1757.75496 L1132.99916,1762.75496 L1130.49916,1762.75408 L1117.99917,1762.74969 L1118.00092,1757.74969 Z M1098.00092,1757.74266 L1110.50092,1757.74705 L1113.00092,1757.74793 L1112.99917,1762.74793 L1110.49917,1762.74705 L1097.99917,1762.74266 L1098.00092,1757.74266 Z M1078.00092,1757.73564 L1090.50092,1757.74003 L1093.00092,1757.74091 L1092.99917,1762.7409 L1090.49917,1762.74003 L1077.99917,1762.73564 L1078.00092,1757.73564 Z M1062.45762,1752.4558 L1063.88499,1754.50826 C1065.27989,1756.51403 1067.55801,1757.73197 1070.04548,1757.73284 L1070.50093,1757.733 L1073.00093,1757.73388 L1072.99917,1762.73388 L1070.49917,1762.733 L1070.04373,1762.73284 C1065.90238,1762.73139 1062.09959,1760.69833 1059.78006,1757.36301 L1058.35269,1755.31054 L1062.45762,1752.4558 Z M1062.52534,1733.79079 L1062.5288,1736.29079 L1062.54265,1746.29078 L1062.54611,1748.79078 L1057.54612,1748.79771 L1057.54266,1746.29771 L1057.5288,1736.29772 L1057.52534,1733.79772 L1062.52534,1733.79079 Z M1062.49764,1713.79081 L1062.5011,1716.29081 L1062.51495,1726.2908 L1062.51841,1728.7908 L1057.51842,1728.79772 L1057.51495,1726.29773 L1057.5011,1716.29774 L1057.49764,1713.79774 L1062.49764,1713.79081 Z M1062.46994,1693.79083 L1062.4734,1696.29083 L1062.48725,1706.29082 L1062.49071,1708.79082 L1057.49072,1708.79774 L1057.48725,1706.29775 L1057.4734,1696.29776 L1057.46994,1693.79776 L1062.46994,1693.79083 Z M1062.44223,1673.79085 L1062.4457,1676.29085 L1062.45955,1686.29084 L1062.46301,1688.79084 L1057.46302,1688.79776 L1057.45955,1686.29776 L1057.4457,1676.29777 L1057.44224,1673.79778 L1062.44223,1673.79085 Z M1062.41453,1653.79087 L1062.418,1656.29087 L1062.43185,1666.29086 L1062.43531,1668.79086 L1057.43531,1668.79778 L1057.43185,1666.29778 L1057.418,1656.29779 L1057.41454,1653.7978 L1062.41453,1653.79087 Z M1062.38683,1633.79089 L1062.3903,1636.29089 L1062.40415,1646.29088 L1062.40761,1648.79088 L1057.40761,1648.7978 L1057.40415,1646.2978 L1057.3903,1636.29781 L1057.38684,1633.79782 L1062.38683,1633.79089 Z M1062.35913,1613.79091 L1062.36259,1616.29091 L1062.37645,1626.2909 L1062.37991,1628.79089 L1057.37991,1628.79782 L1057.37645,1626.29782 L1057.3626,1616.29783 L1057.35914,1613.79783 L1062.35913,1613.79091 Z M1062.33143,1593.79093 L1062.33489,1596.29093 L1062.34874,1606.29092 L1062.35221,1608.79091 L1057.35221,1608.79784 L1057.34875,1606.29784 L1057.3349,1596.29785 L1057.33144,1593.79785 L1062.33143,1593.79093 Z M1062.30373,1573.79095 L1062.30719,1576.29095 L1062.32104,1586.29094 L1062.32451,1588.79093 L1057.32451,1588.79786 L1057.32105,1586.29786 L1057.3072,1576.29787 L1057.30374,1573.79787 L1062.30373,1573.79095 Z M1062.27603,1553.79097 L1062.27949,1556.29096 L1062.29334,1566.29095 L1062.2968,1568.79095 L1057.29681,1568.79788 L1057.29335,1566.29788 L1057.2795,1556.29789 L1057.27603,1553.79789 L1062.27603,1553.79097 Z M1062.24833,1533.79099 L1062.25179,1536.29098 L1062.26564,1546.29097 L1062.2691,1548.79097 L1057.26911,1548.7979 L1057.26565,1546.2979 L1057.2518,1536.29791 L1057.24833,1533.79791 L1062.24833,1533.79099 Z M1062.22063,1513.79101 L1062.22409,1516.291 L1062.23794,1526.29099 L1062.2414,1528.79099 L1057.24141,1528.79792 L1057.23795,1526.29792 L1057.2241,1516.29793 L1057.22063,1513.79793 L1062.22063,1513.79101 Z M1062.19293,1493.79102 L1062.19639,1496.29102 L1062.21024,1506.29101 L1062.2137,1508.79101 L1057.21371,1508.79794 L1057.21024,1506.29794 L1057.19639,1496.29795 L1057.19293,1493.79795 L1062.19293,1493.79102 Z M1062.16523,1473.79104 L1062.16869,1476.29104 L1062.18254,1486.29103 L1062.186,1488.79103 L1057.18601,1488.79795 L1057.18254,1486.29796 L1057.16869,1476.29797 L1057.16523,1473.79797 L1062.16523,1473.79104 Z M1062.13752,1453.79106 L1062.14099,1456.29106 L1062.15484,1466.29105 L1062.1583,1468.79105 L1057.15831,1468.79797 L1057.15484,1466.29798 L1057.14099,1456.29799 L1057.13753,1453.79799 L1062.13752,1453.79106 Z M1062.10982,1433.79108 L1062.11329,1436.29108 L1062.12714,1446.29107 L1062.1306,1448.79107 L1057.1306,1448.79799 L1057.12714,1446.298 L1057.11329,1436.298 L1057.10983,1433.79801 L1062.10982,1433.79108 Z M1062.08212,1413.7911 L1062.08559,1416.2911 L1062.09944,1426.29109 L1062.1029,1428.79109 L1057.1029,1428.79801 L1057.09944,1426.29801 L1057.08559,1416.29802 L1057.08213,1413.79803 L1062.08212,1413.7911 Z M1062.05442,1393.79112 L1062.05788,1396.29112 L1062.07174,1406.29111 L1062.0752,1408.79111 L1057.0752,1408.79803 L1057.07174,1406.29803 L1057.05789,1396.29804 L1057.05443,1393.79805 L1062.05442,1393.79112 Z M1059.49931,1354 L1074.03946,1382.97989 L1062.039,1382.996 L1062.04403,1386.29113 L1062.0475,1388.79113 L1057.0475,1388.79805 L1057.04404,1386.29805 L1057.039,1383.003 L1045.03949,1383.02006 L1059.49931,1354 Z"
            fill="#6BD8B4" fill-rule="nonzero"></path>
        <text id="MIDDLE" font-family="HelveticaNeue-Bold, Helvetica Neue" font-size="60" font-weight="bold"
            letter-spacing="-0.12" fill="#373942">
            <tspan x="1722.61" y="404">MIDDLE</tspan>
        </text>
        <text id="BACK" font-family="HelveticaNeue-Bold, Helvetica Neue" font-size="60" font-weight="bold"
            letter-spacing="-0.12" fill="#373942">
            <tspan x="2554.68" y="404">BACK</tspan>
        </text>
        <text id="DATA" font-family="HelveticaNeue-Bold, Helvetica Neue" font-size="60" font-weight="bold"
            letter-spacing="-0.12" fill="#373942">
            <tspan x="3364.1" y="404">DATA</tspan>
        </text>
        <text id="UI" font-family="HelveticaNeue-Bold, Helvetica Neue" font-size="36" font-weight="bold"
            letter-spacing="-0.072" fill="#373942">
            <tspan x="179.924" y="656">UI</tspan>
        </text>
        <text id="ROUTER" font-family="HelveticaNeue-Bold, Helvetica Neue" font-size="36" font-weight="bold"
            letter-spacing="-0.072" fill="#373942">
            <tspan x="562.72" y="654">ROUTER</tspan>
        </text>
        <text id="CLIENT" font-family="HelveticaNeue-Bold, Helvetica Neue" font-size="36" font-weight="bold"
            letter-spacing="-0.072" fill="#373942">
            <tspan x="995.894" y="969">CLIENT</tspan>
        </text>
        <text id="API-LIBRARY" font-family="HelveticaNeue-Bold, Helvetica Neue" font-size="36" font-weight="bold"
            letter-spacing="-0.072" fill="#373942">
            <tspan x="947.428" y="1295">API LIBRARY</tspan>
        </text>
        <text id="LISTENER" font-family="HelveticaNeue-Bold, Helvetica Neue" font-size="36" font-weight="bold"
            letter-spacing="-0.072" fill="#373942">
            <tspan x="1772.962" y="656">LISTENER</tspan>
        </text>
        <text id="LISTENER" font-family="HelveticaNeue-Bold, Helvetica Neue" font-size="36" font-weight="bold"
            letter-spacing="-0.072" fill="#373942">
            <tspan x="2572.962" y="656">LISTENER</tspan>
        </text>
        <text id="CLIENT" font-family="HelveticaNeue-Bold, Helvetica Neue" font-size="36" font-weight="bold"
            letter-spacing="-0.072" fill="#373942">
            <tspan x="1774.894" y="971">CLIENT</tspan>
        </text>
        <text id="DB-CONNECTOR" font-family="HelveticaNeue-Bold, Helvetica Neue" font-size="36" font-weight="bold"
            letter-spacing="-0.072" fill="#373942">
            <tspan x="2614.062" y="951">DB </tspan>
            <tspan x="2523.306" y="994">CONNECTOR</tspan>
        </text>
        <text id="Create-username-and" font-family="HelveticaNeue-Bold, Helvetica Neue" font-size="36"
            font-weight="bold" letter-spacing="-0.072" fill="#373942">
            <tspan x="3119" y="1526">Create </tspan>
            <tspan x="3119" y="1569">username and </tspan>
            <tspan x="3119" y="1612">password with </tspan>
            <tspan x="3119" y="1655">SQL statement </tspan>
            <tspan x="3119" y="1698">on demand</tspan>
        </text>
        <text id="Return-username-and" font-family="HelveticaNeue-Bold, Helvetica Neue" font-size="36"
            font-weight="bold" letter-spacing="-0.072" fill="#373942">
            <tspan x="3059" y="1854">Return </tspan>
            <tspan x="3059" y="1897">username and </tspan>
            <tspan x="3059" y="1940">password to the </tspan>
            <tspan x="3059" y="1983">consumer</tspan>
        </text>
        <text id="Populate-the-secret" font-family="HelveticaNeue-Bold, Helvetica Neue" font-size="36"
            font-weight="bold" letter-spacing="-0.072" fill="#373942">
            <tspan x="2659" y="1474">Populate the </tspan>
            <tspan x="2659" y="1517">secret using API </tspan>
        </text>
        <text id="Present-secret-direc" font-family="HelveticaNeue-Bold, Helvetica Neue" font-size="36"
            font-weight="bold" letter-spacing="-0.072" fill="#373942">
            <tspan x="1081" y="1135">Present secret </tspan>
            <tspan x="1081" y="1178">directly to the </tspan>
            <tspan x="1081" y="1221">application</tspan>
        </text>
        <text id="Configure-customized" font-family="HelveticaNeue-Bold, Helvetica Neue" font-size="36"
            font-weight="bold" letter-spacing="-0.072" fill="#373942">
            <tspan x="1860" y="1195">Configure </tspan>
            <tspan x="1860" y="1238">customized </tspan>
            <tspan x="1860" y="1281">secret using </tspan>
            <tspan x="1860" y="1324">template </tspan>
            <tspan x="1860" y="1367">language</tspan>
        </text>
        <text id="DATABASE" font-family="HelveticaNeue-Bold, Helvetica Neue" font-size="36" font-weight="bold"
            letter-spacing="-0.072" fill="#373942">
            <tspan x="3346.256" y="656">DATABASE</tspan>
        </text>
        <text id="DB-CONFIG" font-family="HelveticaNeue-Bold, Helvetica Neue" font-size="36" font-weight="bold"
            letter-spacing="-0.072" fill="#373942">
            <tspan x="2538.984" y="1296">DB CONFIG</tspan>
        </text>
        <text id="API" font-family="HelveticaNeue-Bold, Helvetica Neue" font-size="36" font-weight="bold"
            letter-spacing="-0.072" fill="#373942">
            <tspan x="2610.462" y="1769">API</tspan>
        </text>
        <text id="OP" font-family="HelveticaNeue-Bold, Helvetica Neue" font-size="36" font-weight="bold"
            letter-spacing="-0.072" fill="#373942">
            <tspan x="615.062" y="965">OP</tspan>
        </text>
        <text id="E" font-family="HelveticaNeue-Bold, Helvetica Neue" font-size="36" font-weight="bold"
            letter-spacing="-0.072" fill="#CA2171">
            <tspan x="418.372" y="961">E</tspan>
        </text>
        <text id="404" font-family="HelveticaNeue-Bold, Helvetica Neue" font-size="36" font-weight="bold"
            letter-spacing="-0.072" fill="#CA2171">
            <tspan x="610.084" y="1291">404</tspan>
        </text>
        <path id="Line-14"
            d="M530.941357,1276.59325 L559.999996,1290.97538 L531.059113,1305.59301 L531.01,1293.592 L529.198732,1293.60047 L526.698753,1293.61062 L526.67845,1288.61066 L529.17843,1288.60051 L530.99,1288.592 L530.941357,1276.59325 Z M432.872456,1282.12454 L433.865129,1284.41901 C434.885742,1286.77807 437.059052,1288.47499 439.61102,1288.87035 L442.081548,1289.2531 L441.316063,1294.19415 L438.845535,1293.81141 C434.586851,1293.15164 430.975316,1290.33175 429.276185,1286.40436 L428.283512,1284.10989 L432.872456,1282.12454 Z M461.678986,1288.87459 L461.699289,1293.87455 L459.19931,1293.8847 L449.199392,1293.92531 L446.699413,1293.93546 L446.67911,1288.9355 L449.179089,1288.92535 L459.179007,1288.88474 L461.678986,1288.87459 Z M481.678821,1288.79338 L481.699124,1293.79334 L479.199145,1293.80349 L469.199227,1293.8441 L466.699248,1293.85425 L466.678945,1288.85429 L469.178924,1288.84414 L479.178842,1288.80353 L481.678821,1288.79338 Z M501.678657,1288.71217 L501.698959,1293.71213 L499.19898,1293.72228 L489.199062,1293.76289 L486.699083,1293.77304 L486.67878,1288.77308 L489.17876,1288.76293 L501.678657,1288.71217 Z M521.678492,1288.63096 L521.698794,1293.63092 L519.198815,1293.64107 L506.698918,1293.69183 L506.678615,1288.69187 L519.178512,1288.64111 L521.678492,1288.63096 Z M433.160671,1262.98495 L433.172888,1265.48492 L433.22176,1275.4848 L433.233978,1277.98477 L428.234038,1278.0092 L428.22182,1275.50923 L428.172948,1265.50935 L428.16073,1263.00938 L433.160671,1262.98495 Z M433.062927,1242.98518 L433.075145,1245.48515 L433.124017,1255.48504 L433.136235,1257.98501 L428.136294,1258.00944 L428.124077,1255.50947 L428.075205,1245.50959 L428.062987,1243.00962 L433.062927,1242.98518 Z M432.965184,1222.98542 L432.977402,1225.48539 L433.026274,1235.48527 L433.038492,1237.98524 L428.038551,1238.00968 L428.026333,1235.50971 L427.977462,1225.50983 L427.965244,1223.00986 L432.965184,1222.98542 Z M432.867441,1202.98566 L432.879659,1205.48563 L432.92853,1215.48551 L432.940748,1217.98548 L427.940808,1218.00992 L427.92859,1215.50995 L427.879719,1205.51007 L427.867501,1203.0101 L432.867441,1202.98566 Z M432.769698,1182.9859 L432.781916,1185.48587 L432.830787,1195.48575 L432.843005,1197.98572 L427.843065,1198.01016 L427.830847,1195.51019 L427.781975,1185.51031 L427.769758,1183.01034 L432.769698,1182.9859 Z M432.671955,1162.98614 L432.684172,1165.48611 L432.733044,1175.48599 L432.745262,1177.98596 L427.745322,1178.0104 L427.733104,1175.51043 L427.684232,1165.51055 L427.672014,1163.01058 L432.671955,1162.98614 Z M432.574211,1142.98638 L432.586429,1145.48635 L432.635301,1155.48623 L432.647519,1157.9862 L427.647579,1158.01064 L427.635361,1155.51067 L427.586489,1145.51078 L427.574271,1143.01081 L432.574211,1142.98638 Z M432.476468,1122.98662 L432.488686,1125.48659 L432.537558,1135.48647 L432.549776,1137.98644 L427.549835,1138.01087 L427.537617,1135.5109 L427.488746,1125.51102 L427.476528,1123.01105 L432.476468,1122.98662 Z M432.378725,1102.98686 L432.390943,1105.48683 L432.439815,1115.48671 L432.452032,1117.98668 L427.452092,1118.01111 L427.439874,1115.51114 L427.391003,1105.51126 L427.378785,1103.01129 L432.378725,1102.98686 Z M432.280982,1082.9871 L432.2932,1085.48707 L432.342071,1095.48695 L432.354289,1097.98692 L427.354349,1098.01135 L427.342131,1095.51138 L427.293259,1085.5115 L427.281042,1083.01153 L432.280982,1082.9871 Z M432.183239,1062.98733 L432.195457,1065.4873 L432.244328,1075.48718 L432.256546,1077.98716 L427.256606,1078.01159 L427.244388,1075.51162 L427.195516,1065.51174 L427.183298,1063.01177 L432.183239,1062.98733 Z M432.085495,1042.98757 L432.097713,1045.48754 L432.146585,1055.48742 L432.158803,1057.98739 L427.158863,1058.01183 L427.146645,1055.51186 L427.097773,1045.51198 L427.085555,1043.01201 L432.085495,1042.98757 Z M431.987752,1022.98781 L431.99997,1025.48778 L432.048842,1035.48766 L432.06106,1037.98763 L427.061119,1038.01207 L427.048901,1035.5121 L427.00003,1025.51222 L426.987812,1023.01225 L431.987752,1022.98781 Z"
            fill="#CA2171" fill-rule="nonzero"></path>
        <line x1="630.5" y1="1175.5" x2="650" y2="1194" id="Line-16" stroke="#CA2171" stroke-width="5"
            stroke-linecap="square"></line>
        <line x1="630.75" y1="1193.75" x2="649.75" y2="1175.75" id="Line-16" stroke="#CA2171" stroke-width="5"
            stroke-linecap="square"></line>
        <g id="Triangle" transform="translate(3080, 1680) rotate(90) translate(-3080, -1680)">
            <use fill="black" fill-opacity="1" filter="url(#filter-55)" xlink:href="#path-54"></use>
            <path stroke="#6A6D7A" stroke-width="5"
                d="M3080,1665.59017 L3095.95492,1697.5 L3064.04508,1697.5 L3080,1665.59017 Z" stroke-linejoin="square"
                fill="#F7F8FA" fill-rule="evenodd"></path>
        </g>
        <g id="Triangle" transform="translate(3380, 1840) rotate(269) translate(-3380, -1840)">
            <use fill="black" fill-opacity="1" filter="url(#filter-57)" xlink:href="#path-56"></use>
            <path stroke="#6A6D7A" stroke-width="5"
                d="M3380,1825.59017 L3395.95492,1857.5 L3364.04508,1857.5 L3380,1825.59017 Z" stroke-linejoin="square"
                fill="#F7F8FA" fill-rule="evenodd"></path>
        </g>
        <text id="Renew-PKI-Certificat" font-family="HelveticaNeue-Bold, Helvetica Neue" font-size="36"
            font-weight="bold" letter-spacing="-0.072" fill="#373942">
            <tspan x="1946" y="1598">Renew PKI </tspan>
            <tspan x="1946" y="1641">Certificate when </tspan>
            <tspan x="1946" y="1684">current one </tspan>
            <tspan x="1946" y="1727">expires</tspan>
        </text>
        <text id="mTLS" font-family="HelveticaNeue-Bold, Helvetica Neue" font-size="24" font-weight="bold"
            letter-spacing="-0.048" fill="#373942">
            <tspan x="342.988" y="618">mTLS</tspan>
        </text>
        <text id="mTLS" font-family="HelveticaNeue-Bold, Helvetica Neue" font-size="24" font-weight="bold"
            letter-spacing="-0.048" fill="#373942">
            <tspan x="2284.988" y="624">mTLS</tspan>
        </text>
        <text id="Populate-CA-signed," font-family="HelveticaNeue-Bold, Helvetica Neue" font-size="36"
            font-weight="bold" letter-spacing="-0.072" fill="#373942">
            <tspan x="1870" y="1818">Populate CA-</tspan>
            <tspan x="1870" y="1861">signed, PKI </tspan>
            <tspan x="1870" y="1904">certificate and </tspan>
            <tspan x="1870" y="1947">private key</tspan>
        </text>
        <g id="Triangle" transform="translate(1890, 1681) rotate(90) translate(-1890, -1681)">
            <use fill="black" fill-opacity="1" filter="url(#filter-59)" xlink:href="#path-58"></use>
            <path stroke="#6A6D7A" stroke-width="5"
                d="M1890,1666.59017 L1905.95492,1698.5 L1874.04508,1698.5 L1890,1666.59017 Z" stroke-linejoin="square"
                fill="#F7F8FA" fill-rule="evenodd"></path>
        </g>
        <g id="Triangle" transform="translate(2190, 1841) rotate(269) translate(-2190, -1841)">
            <use fill="black" fill-opacity="1" filter="url(#filter-61)" xlink:href="#path-60"></use>
            <path stroke="#6A6D7A" stroke-width="5"
                d="M2190,1826.59017 L2205.95492,1858.5 L2174.04508,1858.5 L2190,1826.59017 Z" stroke-linejoin="square"
                fill="#F7F8FA" fill-rule="evenodd"></path>
        </g>
        <text id="Request-secret-based" font-family="HelveticaNeue-Bold, Helvetica Neue" font-size="36"
            font-weight="bold" letter-spacing="-0.072" fill="#373942">
            <tspan x="1165" y="1535">Request secret </tspan>
            <tspan x="1165" y="1578">based on </tspan>
            <tspan x="1165" y="1621">customized </tspan>
            <tspan x="1165" y="1664">method from </tspan>
            <tspan x="1165" y="1707">the client library</tspan>
        </text>
        <text id="Present-wrapped-secr" font-family="HelveticaNeue-Bold, Helvetica Neue" font-size="36"
            font-weight="bold" letter-spacing="-0.072" fill="#373942">
            <tspan x="1038" y="1823">Present wrapped </tspan>
            <tspan x="1038" y="1866">secret (assume </tspan>
            <tspan x="1038" y="1909">successful client </tspan>
            <tspan x="1038" y="1952">authentication)</tspan>
        </text>
        <g id="Triangle" transform="translate(1109, 1681) rotate(90) translate(-1109, -1681)">
            <use fill="black" fill-opacity="1" filter="url(#filter-63)" xlink:href="#path-62"></use>
            <path stroke="#6A6D7A" stroke-width="5"
                d="M1109,1666.59017 L1124.95492,1698.5 L1093.04508,1698.5 L1109,1666.59017 Z" stroke-linejoin="square"
                fill="#F7F8FA" fill-rule="evenodd"></path>
        </g>
        <g id="Triangle" transform="translate(1409, 1841) rotate(269) translate(-1409, -1841)">
            <use fill="black" fill-opacity="1" filter="url(#filter-65)" xlink:href="#path-64"></use>
            <path stroke="#6A6D7A" stroke-width="5"
                d="M1409,1826.59017 L1424.95492,1858.5 L1393.04508,1858.5 L1409,1826.59017 Z" stroke-linejoin="square"
                fill="#F7F8FA" fill-rule="evenodd"></path>
        </g>
        <text id="mTLS" font-family="HelveticaNeue-Bold, Helvetica Neue" font-size="24" font-weight="bold"
            letter-spacing="-0.048" fill="#373942">
            <tspan x="1486.988" y="625">mTLS</tspan>
        </text>
        <path id="Line-7"
            d="M1650.97734,635.044619 L1680,649.499218 L1651.02273,664.044583 L1651.003,652.044 L1369.98826,652.484372 C1365.85072,652.490847 1362.5,655.84681 1362.5,659.984363 L1362.5,950.035524 C1362.5,956.921718 1356.93063,962.510939 1350.04448,962.535445 L1219.5089,962.999984 L1217.00891,963.008881 L1216.99112,958.008913 L1219.4911,958.000016 L1350.02669,957.535476 C1354.15838,957.520773 1357.5,954.16724 1357.5,950.035524 L1357.5,659.984363 C1357.5,653.088442 1363.08453,647.49517 1369.98044,647.484378 L1650.996,647.044 L1650.97734,635.044619 Z"
            fill="#66A2FF" fill-rule="nonzero"></path>
        <text id="mTLS-Termination" font-family="HelveticaNeue-Bold, Helvetica Neue" font-size="24" font-weight="bold"
            letter-spacing="-0.048" fill="#373942">
            <tspan x="1336.644" y="1470">mTLS Termination</tspan>
        </text>
        <rect id="Rectangle" fill="#E5E6EB" transform="translate(1678, 1760) rotate(-90) translate(-1678, -1760)"
            x="1674" y="1720" width="8" height="80"></rect>
        <text id="SIDECAR" transform="translate(1690.5, 1761) rotate(-90) translate(-1690.5, -1761)"
            font-family="HelveticaNeue-Bold, Helvetica Neue" font-size="60" font-weight="bold" letter-spacing="-0.12"
            fill="#373942">
            <tspan x="1556.49" y="1770.5">SIDECAR</tspan>
        </text>
        <path id="Line-6"
            d="M1070.5,889.390848 L1070.5,901.5 L1065.5,901.5 L1065.5,889.390848 L1070.5,889.390848 Z M1070.5,869.390848 L1070.5,884.390848 L1065.5,884.390848 L1065.5,869.390848 L1070.5,869.390848 Z M1070.5,849.390848 L1070.5,864.390848 L1065.5,864.390848 L1065.5,849.390848 L1070.5,849.390848 Z M1070.5,829.390848 L1070.5,844.390848 L1065.5,844.390848 L1065.5,829.390848 L1070.5,829.390848 Z M1070.5,809.390848 L1070.5,824.390848 L1065.5,824.390848 L1065.5,809.390848 L1070.5,809.390848 Z M1070.5,789.390848 L1070.5,804.390848 L1065.5,804.390848 L1065.5,789.390848 L1070.5,789.390848 Z M1070.5,769.390848 L1070.5,784.390848 L1065.5,784.390848 L1065.5,769.390848 L1070.5,769.390848 Z M1070.5,749.390848 L1070.5,764.390848 L1065.5,764.390848 L1065.5,749.390848 L1070.5,749.390848 Z M1070.5,729.390848 L1070.5,744.390848 L1065.5,744.390848 L1065.5,729.390848 L1070.5,729.390848 Z M1070.5,709.390848 L1070.5,724.390848 L1065.5,724.390848 L1065.5,709.390848 L1070.5,709.390848 Z M1070.5,689.390848 L1070.5,704.390848 L1065.5,704.390848 L1065.5,689.390848 L1070.5,689.390848 Z M1070.5,669.390848 L1070.5,684.390848 L1065.5,684.390848 L1065.5,669.390848 L1070.5,669.390848 Z M828,635.5 L828,647.5 L838,647.5 L838,652.5 L828,652.5 L828,664.5 L799,650 L828,635.5 Z M1064.73887,649.178815 L1066.56037,650.891164 C1069.05583,653.23709 1070.5,656.50607 1070.5,660 L1070.5,664.390848 L1065.5,664.390848 L1065.5,660 C1065.5,657.900213 1064.63607,655.944662 1063.13567,654.534162 L1061.31417,652.821812 L1064.73887,649.178815 Z M858,647.5 L858,652.5 L843,652.5 L843,647.5 L858,647.5 Z M878,647.5 L878,652.5 L863,652.5 L863,647.5 L878,647.5 Z M898,647.5 L898,652.5 L883,652.5 L883,647.5 L898,647.5 Z M918,647.5 L918,652.5 L903,652.5 L903,647.5 L918,647.5 Z M938,647.5 L938,652.5 L923,652.5 L923,647.5 L938,647.5 Z M958,647.5 L958,652.5 L943,652.5 L943,647.5 L958,647.5 Z M978,647.5 L978,652.5 L963,652.5 L963,647.5 L978,647.5 Z M998,647.5 L998,652.5 L983,652.5 L983,647.5 L998,647.5 Z M1018,647.5 L1018,652.5 L1003,652.5 L1003,647.5 L1018,647.5 Z M1038,647.5 L1038,652.5 L1023,652.5 L1023,647.5 L1038,647.5 Z M1058,647.5 L1058,652.5 L1043,652.5 L1043,647.5 L1058,647.5 Z"
            fill="#66A2FF" fill-rule="nonzero"></path>
        <use id="Rectangle" stroke="#E5E6EB" mask="url(#mask-67)" stroke-width="10" fill="#EBF8FF" stroke-dasharray="5"
            xlink:href="#path-66"></use>
        <text id="Uses-dedicated-role" font-family="HelveticaNeue-Bold, Helvetica Neue" font-size="36"
            font-weight="bold" letter-spacing="-0.072" fill="#373942">
            <tspan x="661.5" y="1554.5">Uses dedicated </tspan>
            <tspan x="661.5" y="1597.5">role to retrieve </tspan>
            <tspan x="661.5" y="1640.5">secrets upon </tspan>
            <tspan x="661.5" y="1683.5">build of the </tspan>
            <tspan x="661.5" y="1726.5">application</tspan>
        </text>
        <g id="Triangle" transform="translate(578.5, 1700.5) rotate(90) translate(-578.5, -1700.5)">
            <use fill="black" fill-opacity="1" filter="url(#filter-69)" xlink:href="#path-68"></use>
            <path stroke="#6A6D7A" stroke-width="5"
                d="M578.5,1686.09017 L594.454915,1718 L562.545085,1718 L578.5,1686.09017 Z" stroke-linejoin="square"
                fill="#F7F8FA" fill-rule="evenodd"></path>
        </g>
        <use id="Rectangle" stroke="#CCCCCC" mask="url(#mask-71)" stroke-width="10" fill="#BFE8FE" stroke-dasharray="5"
            xlink:href="#path-70"></use>
        <text id="ORCHESTRATOR" transform="translate(400, 1761) rotate(-90) translate(-400, -1761)"
            font-family="HelveticaNeue-Bold, Helvetica Neue" font-size="36" font-weight="bold" letter-spacing="-0.072"
            fill="#373942">
            <tspan x="250.744" y="1756">ORCHESTRATOR</tspan>
        </text>
        <text id="Populate-secrets-to" font-family="HelveticaNeue-Bold, Helvetica Neue" font-size="36"
            font-weight="bold" letter-spacing="-0.072" fill="#373942">
            <tspan x="564" y="1818">Populate </tspan>
            <tspan x="564" y="1861">secrets to as a </tspan>
            <tspan x="564" y="1904">configuration </tspan>
            <tspan x="564" y="1947">item upon build </tspan>
        </text>
        <g id="Triangle" transform="translate(879, 1822) rotate(269) translate(-879, -1822)">
            <use fill="black" fill-opacity="1" filter="url(#filter-73)" xlink:href="#path-72"></use>
            <path stroke="#6A6D7A" stroke-width="5"
                d="M879,1807.59017 L894.954915,1839.5 L863.045085,1839.5 L879,1807.59017 Z" stroke-linejoin="square"
                fill="#F7F8FA" fill-rule="evenodd"></path>
        </g>
        <path id="Line-18"
            d="M643,1568 L643,1583 L638,1583 L638,1568 L643,1568 Z M643,1548 L643,1563 L638,1563 L638,1548 L643,1548 Z M643,1528 L643,1543 L638,1543 L638,1528 L643,1528 Z M643,1508 L643,1523 L638,1523 L638,1508 L643,1508 Z M640.5,1461 L655,1490 L643,1490 L643,1503 L638,1503 L638,1490 L626,1490 L640.5,1461 Z"
            fill="#00ACFF" fill-rule="nonzero"></path>
    </g>
</svg>