<?xml version="1.0" encoding="UTF-8"?>
<svg width="480px" height="400px" viewBox="0 0 480 400" version="1.1" xmlns="http://www.w3.org/2000/svg"
    xmlns:xlink="http://www.w3.org/1999/xlink">
    <title>secrets_access</title>
    <defs>
        <rect id="path-1" x="0" y="0" width="48" height="48" rx="2"></rect>
        <filter x="-24.0%" y="-19.8%" width="147.9%" height="147.9%" filterUnits="objectBoundingBox" id="filter-2">
            <feMorphology radius="1" operator="dilate" in="SourceAlpha" result="shadowSpreadOuter1"></feMorphology>
            <feOffset dx="0" dy="2" in="shadowSpreadOuter1" result="shadowOffsetOuter1"></feOffset>
            <feGaussianBlur stdDeviation="2.5" in="shadowOffsetOuter1" result="shadowBlurOuter1"></feGaussianBlur>
            <feComposite in="shadowBlurOuter1" in2="SourceAlpha" operator="out" result="shadowBlurOuter1"></feComposite>
            <feColorMatrix values="0 0 0 0 0   0 0 0 0 0   0 0 0 0 0  0 0 0 0.1 0" type="matrix" in="shadowBlurOuter1">
            </feColorMatrix>
        </filter>
        <rect id="path-3" x="0" y="0" width="48" height="48" rx="2"></rect>
        <filter x="-24.0%" y="-19.8%" width="147.9%" height="147.9%" filterUnits="objectBoundingBox" id="filter-4">
            <feMorphology radius="1" operator="dilate" in="SourceAlpha" result="shadowSpreadOuter1"></feMorphology>
            <feOffset dx="0" dy="2" in="shadowSpreadOuter1" result="shadowOffsetOuter1"></feOffset>
            <feGaussianBlur stdDeviation="2.5" in="shadowOffsetOuter1" result="shadowBlurOuter1"></feGaussianBlur>
            <feComposite in="shadowBlurOuter1" in2="SourceAlpha" operator="out" result="shadowBlurOuter1"></feComposite>
            <feColorMatrix values="0 0 0 0 0   0 0 0 0 0   0 0 0 0 0  0 0 0 0.1 0" type="matrix" in="shadowBlurOuter1">
            </feColorMatrix>
        </filter>
        <rect id="path-5" x="0" y="0" width="48" height="48" rx="2"></rect>
        <filter x="-24.0%" y="-19.8%" width="147.9%" height="147.9%" filterUnits="objectBoundingBox" id="filter-6">
            <feMorphology radius="1" operator="dilate" in="SourceAlpha" result="shadowSpreadOuter1"></feMorphology>
            <feOffset dx="0" dy="2" in="shadowSpreadOuter1" result="shadowOffsetOuter1"></feOffset>
            <feGaussianBlur stdDeviation="2.5" in="shadowOffsetOuter1" result="shadowBlurOuter1"></feGaussianBlur>
            <feComposite in="shadowBlurOuter1" in2="SourceAlpha" operator="out" result="shadowBlurOuter1"></feComposite>
            <feColorMatrix values="0 0 0 0 0   0 0 0 0 0   0 0 0 0 0  0 0 0 0.1 0" type="matrix" in="shadowBlurOuter1">
            </feColorMatrix>
        </filter>
        <rect id="path-7" x="0" y="0" width="48" height="48" rx="2"></rect>
        <filter x="-24.0%" y="-19.8%" width="147.9%" height="147.9%" filterUnits="objectBoundingBox" id="filter-8">
            <feMorphology radius="1" operator="dilate" in="SourceAlpha" result="shadowSpreadOuter1"></feMorphology>
            <feOffset dx="0" dy="2" in="shadowSpreadOuter1" result="shadowOffsetOuter1"></feOffset>
            <feGaussianBlur stdDeviation="2.5" in="shadowOffsetOuter1" result="shadowBlurOuter1"></feGaussianBlur>
            <feComposite in="shadowBlurOuter1" in2="SourceAlpha" operator="out" result="shadowBlurOuter1"></feComposite>
            <feColorMatrix values="0 0 0 0 0   0 0 0 0 0   0 0 0 0 0  0 0 0 0.1 0" type="matrix" in="shadowBlurOuter1">
            </feColorMatrix>
        </filter>
        <rect id="path-9" x="0" y="0" width="48" height="48" rx="2"></rect>
        <filter x="-24.0%" y="-19.8%" width="147.9%" height="147.9%" filterUnits="objectBoundingBox" id="filter-10">
            <feMorphology radius="1" operator="dilate" in="SourceAlpha" result="shadowSpreadOuter1"></feMorphology>
            <feOffset dx="0" dy="2" in="shadowSpreadOuter1" result="shadowOffsetOuter1"></feOffset>
            <feGaussianBlur stdDeviation="2.5" in="shadowOffsetOuter1" result="shadowBlurOuter1"></feGaussianBlur>
            <feComposite in="shadowBlurOuter1" in2="SourceAlpha" operator="out" result="shadowBlurOuter1"></feComposite>
            <feColorMatrix values="0 0 0 0 0   0 0 0 0 0   0 0 0 0 0  0 0 0 0.1 0" type="matrix" in="shadowBlurOuter1">
            </feColorMatrix>
        </filter>
    </defs>
    <g id="secrets_access" stroke="none" stroke-width="1" fill="none" fill-rule="evenodd">
        <g id="svg-background" fill="#F2F2F3">
            <rect id="rectangle" x="0" y="0" width="480" height="400"></rect>
        </g>
        <g id="workflow" transform="translate(32, 59)">
            <g id="CLI-to-auth" transform="translate(326, 67)" fill="#1D1E1F" fill-rule="nonzero">
                <path id="arrow"
                    d="M0.287347886,-0.957826285 C20.9035132,5.22702331 38.0138695,19.5763105 47.7194854,38.6401739 L53.3925163,36.4095895 L52,52 L40.3631814,41.5317407 L45.8491856,39.3752809 C36.3755328,20.882784 19.7417749,6.96656314 -0.287347886,0.957826285 L0.287347886,-0.957826285 Z">
                    <animate attributeName="opacity" dur="10s" keyTimes="0;0.12;0.28;0.8;0.9;1" values="0;0;1;1;1;0"
                        repeatCount="indefinite" />
                </path>
            </g>
            <g id="user-to-cli" transform="translate(66, 62)" fill="#1D1E1F" fill-rule="nonzero">
                <path id="user-to-iac" d="M164,-6.5 L178,0.5 L164,7.5 L164,1.5 L0,1.5 L0,-0.5 L164,-0.5 L164,-6.5 Z">
                    <animate attributeName="opacity" dur="10s" keyTimes="0;0.01;0.06;0.8;0.9;1" values="0;0;1;1;1;0"
                        repeatCount="indefinite" />
                </path>
            </g>
            <g id="secret" transform="translate(128, 113)">
                <g id="box" transform="translate(70, 6)">
                    <use fill="black" fill-opacity="1" filter="url(#filter-2)" xlink:href="#path-1"></use>
                    <rect stroke="#DBDBDC" stroke-width="1" stroke-linejoin="square" fill="#FFFFFF" fill-rule="evenodd"
                        x="0.5" y="0.5" width="47" height="47" rx="2"></rect>
                </g>
                <g id="core-/-Database-/-Dark" transform="translate(78, 14)" fill="#222222">
                    <path
                        d="M32,6 C32,4.8 31.2496,3.856 30.3664,3.184 C29.4688,2.496 28.2432,1.92 26.8352,1.472 C24.008,0.544 20.1776,0 16,0 C11.8224,0 7.992,0.544 5.1648,1.472 C3.7568,1.92 2.5312,2.496 1.6336,3.184 C0.7504,3.856 0,4.8 0,6 L0,25.856 C0,27.056 0.7264,28.016 1.6096,28.72 C2.5056,29.44 3.7296,30.016 5.136,30.496 C7.9616,31.44 11.7968,32 16,32 C20.2032,32 24.0384,31.44 26.864,30.496 C28.2704,30.016 29.4944,29.44 30.3904,28.72 C31.2736,28.016 32,27.056 32,25.856 L32,6 Z M3.0928,5.088 C2.4768,5.552 2.4,5.872 2.4,6 C2.4,6.128 2.4768,6.448 3.0928,6.912 C3.6912,7.376 4.6336,7.84 5.9056,8.256 C8.4336,9.072 12.0032,9.6 16,9.6 C19.9968,9.6 23.5664,9.072 26.0944,8.256 C27.3664,7.84 28.3088,7.376 28.9072,6.912 C29.5232,6.448 29.6,6.128 29.6,6 C29.6,5.872 29.5232,5.552 28.9072,5.088 C28.3088,4.624 27.3664,4.16 26.0944,3.744 C23.5664,2.928 19.9968,2.4 16,2.4 C12.0032,2.4 8.4336,2.928 5.9056,3.744 C4.6336,4.16 3.6912,4.624 3.0928,5.088 Z M29.6,9.328 C28.816,9.792 27.8752,10.192 26.8352,10.528 C24.008,11.456 20.1776,12 16,12 C11.8224,12 7.992,11.456 5.1648,10.528 C4.1248,10.192 3.184,9.792 2.4,9.328 L2.4,15.6 C2.4,15.728 2.4784,16.048 3.0896,16.528 C3.6832,16.976 4.6192,17.44 5.888,17.856 C8.4096,18.672 11.9776,19.2 16,19.2 C20.0224,19.2 23.5904,18.672 26.112,17.856 C27.3808,17.44 28.3168,16.976 28.9104,16.528 C29.5216,16.048 29.6,15.728 29.6,15.6 L29.6,9.328 Z M29.6,18.944 C28.8208,19.408 27.888,19.808 26.8544,20.144 C24.032,21.056 20.2,21.6 16,21.6 C11.8,21.6 7.968,21.056 5.1456,20.144 C4.112,19.808 3.1792,19.408 2.4,18.944 L2.4,25.856 C2.4,26.016 2.496,26.368 3.1024,26.848 C3.696,27.312 4.632,27.792 5.8976,28.224 C8.416,29.056 11.9808,29.6 16,29.6 C20.0192,29.6 23.584,29.056 26.1024,28.224 C27.368,27.792 28.304,27.312 28.8976,26.848 C29.504,26.368 29.6,26.016 29.6,25.856 L29.6,18.944 Z"
                        id="Database"></path>
                </g>
                <text id="Release-Secret" font-family="Helvetica-Bold, Helvetica" font-size="12" font-weight="bold"
                    letter-spacing="-0.024" fill="#1D1E1F">
                    <tspan x="9.39942969" y="24">Release </tspan>
                    <tspan x="13.7262969" y="38">Secret</tspan>
                </text>
            </g>
            <g id="CLI" transform="translate(269, 0)">
                <g id="box" transform="translate(9, 39)">
                    <use fill="black" fill-opacity="1" filter="url(#filter-4)" xlink:href="#path-3"></use>
                    <rect stroke="#DBDBDC" stroke-width="1" stroke-linejoin="square" fill="#FFFFFF" fill-rule="evenodd"
                        x="0.5" y="0.5" width="47" height="47" rx="2"></rect>
                </g>
                <g id="Group" transform="translate(17, 48)" fill="#222222">
                    <path
                        d="M5.52567273,4.66545455 C5.91127273,4.2 6.59912727,4.14181818 7.06210909,4.52 L13.6075636,9.97454545 C13.8562909,10.1927273 14,10.4981818 14,10.8181818 C14,11.1381818 13.8562909,11.4436364 13.6075636,11.6618182 L7.06210909,17.1163636 C6.59912727,17.4945455 5.91127273,17.4363636 5.52567273,16.9709091 C5.13992727,16.5054545 5.20247273,15.8218182 5.66530909,15.4290909 L11.2050909,10.8181818 L5.66530909,6.20727273 C5.20247273,5.81454545 5.13992727,5.13090909 5.52567273,4.66545455 Z"
                        id="Path" fill-rule="nonzero"></path>
                    <path
                        d="M13.6363636,17.3636364 C13.0338909,17.3636364 12.5454545,17.8581818 12.5454545,18.4545455 C12.5454545,19.0509091 13.0338909,19.5454545 13.6363636,19.5454545 L21.6363636,19.5454545 C22.2388364,19.5454545 22.7272727,19.0509091 22.7272727,18.4545455 C22.7272727,17.8581818 22.2388364,17.3636364 21.6363636,17.3636364 L13.6363636,17.3636364 Z"
                        id="Path" fill-rule="nonzero"></path>
                    <path
                        d="M0,4 C0,1.78909091 1.79083636,0 4,0 L28,0 C30.2091636,0 32,1.78909091 32,4 L32,25.0909091 C32,27.3018182 30.2091636,29.0909091 28,29.0909091 L4,29.0909091 C1.79083636,29.0909091 0,27.3018182 0,25.0909091 L0,4 Z M4,2.18181818 C2.99578182,2.18181818 2.18181818,2.99636364 2.18181818,4 L2.18181818,25.0909091 C2.18181818,26.0945455 2.99578182,26.9090909 4,26.9090909 L28,26.9090909 C29.0042182,26.9090909 29.8181818,26.0945455 29.8181818,25.0909091 L29.8181818,4 C29.8181818,2.99636364 29.0042182,2.18181818 28,2.18181818 L4,2.18181818 Z"
                        id="Shape"></path>
                </g>
                <text id="Access-Medium" font-family="Helvetica-Bold, Helvetica" font-size="12" font-weight="bold"
                    letter-spacing="-0.024" fill="#1D1E1F">
                    <tspan x="11.0544219" y="11">Access </tspan>
                    <tspan x="9.40500781" y="25">Medium</tspan>
                </text>
            </g>
            <g id="auth" transform="translate(269, 113)">
                <g id="box" transform="translate(89, 6)">
                    <use fill="black" fill-opacity="1" filter="url(#filter-6)" xlink:href="#path-5"></use>
                    <rect stroke="#DBDBDC" stroke-width="1" stroke-linejoin="square" fill="#FFFFFF" fill-rule="evenodd"
                        x="0.5" y="0.5" width="47" height="47" rx="2"></rect>
                </g>
                <g id="lock-open" transform="translate(95, 10)" fill="#000000" fill-rule="nonzero">
                    <path
                        d="M6,16 L6,12 C6,5.372583 11.372583,0 18,0 C24.627417,0 30,5.372583 30,12 L24,12 L24,16 L32,16 C34.209139,16 36,17.790861 36,20 L36,36 C36,38.209139 34.209139,40 32,40 L4,40 C1.790861,40 0,38.209139 0,36 L0,20 C0,17.8 1.8,16 4,16 L6,16 Z M16,29.46 L16,34 L20,34 L20,29.46 C21.5678721,28.5547886 22.3322752,26.7093563 21.8637033,24.9606222 C21.3951314,23.2118881 19.8104227,21.9958984 18,21.9958984 C16.1895773,21.9958984 14.6048686,23.2118881 14.1362967,24.9606222 C13.6677248,26.7093563 14.4321279,28.5547886 16,29.46 Z M12,12 L12,16 L24,16 L24,12 C24,8.6862915 21.3137085,6 18,6 C14.6862915,6 12,8.6862915 12,12 Z"
                        id="Shape"></path>
                </g>
                <text id="Authenticate" font-family="Helvetica-Bold, Helvetica" font-size="12" font-weight="bold"
                    letter-spacing="-0.024" fill="#1D1E1F">
                    <tspan x="5.30708594" y="24">Authenticate</tspan>
                </text>
            </g>
            <g id="consumer" transform="translate(0, 33)">
                <g id="box" transform="translate(10, 6)">
                    <use fill="black" fill-opacity="1" filter="url(#filter-8)" xlink:href="#path-7"></use>
                    <rect stroke="#DBDBDC" stroke-width="1" stroke-linejoin="square" fill="#FFFFFF" fill-rule="evenodd"
                        x="0.5" y="0.5" width="47" height="47" rx="2"></rect>
                </g>
                <g id="user-solid-circle" transform="translate(16, 12)" fill="#000000" fill-rule="nonzero">
                    <path
                        d="M18,36 C8.0588745,36 0,27.9411255 0,18 C0,8.0588745 8.0588745,0 18,0 C27.9411255,0 36,8.0588745 36,18 C36,27.9411255 27.9411255,36 18,36 Z M12.6,10.8 L12.6,14.4 C12.6,17.3823376 15.0176624,19.8 18,19.8 C20.9823376,19.8 23.4,17.3823376 23.4,14.4 L23.4,10.8 C23.4,7.81766235 20.9823376,5.4 18,5.4 C15.0176624,5.4 12.6,7.81766235 12.6,10.8 Z M6.03,25.992 C8.70239094,29.9880962 13.1926662,32.3870578 18,32.3870578 C22.8073338,32.3870578 27.2976091,29.9880962 29.97,25.992 C22.3711885,22.5038003 13.6288115,22.5038003 6.03,25.992 L6.03,25.992 Z"
                        id="Shape"></path>
                </g>
                <text id="Secrets-Consumer" font-family="Helvetica-Bold, Helvetica" font-size="12" font-weight="bold"
                    letter-spacing="-0.024" fill="#1D1E1F">
                    <tspan x="10.4013828" y="71">Secrets</tspan>
                    <tspan x="2.424125" y="85">Consumer</tspan>
                </text>
            </g>
            <g id="auth-to-validate"
                transform="translate(352, 193) rotate(180) translate(-352, -193)translate(326, 167)" fill="#1D1E1F"
                fill-rule="nonzero">
                <path id="arrow"
                    d="M0.287347886,-0.957826285 C20.9035132,5.22702331 38.0138695,19.5763105 47.7194854,38.6401739 L53.3925163,36.4095895 L52,52 L40.3631814,41.5317407 L45.8491856,39.3752809 C36.3755328,20.882784 19.7417749,6.96656314 -0.287347886,0.957826285 L0.287347886,-0.957826285 Z"
                    transform="translate(26, 26) rotate(-90) translate(-26, -26)">
                    <animate attributeName="opacity" dur="10s" keyTimes="0;0.18;0.24;0.8;0.9;1" values="0;0;1;1;1;0"
                        repeatCount="indefinite" />
                </path>
            </g>
            <g id="validate-to-secret"
                transform="translate(252, 193) rotate(-90) translate(-252, -193)translate(226, 167)" fill="#1D1E1F"
                fill-rule="nonzero">
                <path id="arrow"
                    d="M0.287347886,-0.957826285 C20.9035132,5.22702331 38.0138695,19.5763105 47.7194854,38.6401739 L53.3925163,36.4095895 L52,52 L40.3631814,41.5317407 L45.8491856,39.3752809 C36.3755328,20.882784 19.7417749,6.96656314 -0.287347886,0.957826285 L0.287347886,-0.957826285 Z"
                    transform="translate(26, 26) rotate(-90) translate(-26, -26)">
                    <animate attributeName="opacity" dur="10s" keyTimes="0;0.24;0.30;0.8;0.9;1" values="0;0;1;1;1;0"
                        repeatCount="indefinite" />
                </path>
            </g>
            <g id="validate" transform="translate(269, 189)">
                <g id="box" transform="translate(9, 6)">
                    <use fill="black" fill-opacity="1" filter="url(#filter-10)" xlink:href="#path-9"></use>
                    <rect stroke="#DBDBDC" stroke-width="1" stroke-linejoin="square" fill="#FFFFFF" fill-rule="evenodd"
                        x="0.5" y="0.5" width="47" height="47" rx="2"></rect>
                </g>
                <g id="download" transform="translate(15, 12)" fill="#000000" fill-rule="nonzero">
                    <path
                        d="M23.4,12 L23.4,0 L12.6,0 L12.6,12 L3.6,12 L18,28 L32.4,12 L23.4,12 Z M0,32 L36,32 L36,36 L0,36 L0,32 Z"
                        id="Shape"></path>
                </g>
                <text id="Authorize" font-family="Helvetica-Bold, Helvetica" font-size="12" font-weight="bold"
                    letter-spacing="-0.024" fill="#1D1E1F">
                    <tspan x="4.44296094" y="75">Authorize</tspan>
                </text>
            </g>
        </g>
    </g>
</svg>